<?xml version="1.0" encoding="UTF-8" standalone="no"?>
<!DOCTYPE svg PUBLIC "-//W3C//DTD SVG 1.1//EN"
 "http://www.w3.org/Graphics/SVG/1.1/DTD/svg11.dtd">
<!-- Generated by graphviz version 12.2.1 (0)
 -->
<!-- Pages: 1 -->
<svg width="566pt" height="276pt"
 viewBox="0.00 0.00 566.00 275.50" xmlns="http://www.w3.org/2000/svg" xmlns:xlink="http://www.w3.org/1999/xlink">
<g id="graph0" class="graph" transform="scale(1 1) rotate(0) translate(4 271.5)">
<polygon fill="white" stroke="none" points="-4,4 -4,-271.5 562,-271.5 562,4 -4,4"/>
<!-- root -->
<g id="node1" class="node">
<title>root</title>
<polygon fill="none" stroke="black" points="357.25,-267.5 192.75,-267.5 192.75,-231.5 357.25,-231.5 357.25,-267.5"/>
<text text-anchor="middle" x="275" y="-244.45" font-family="Times,serif" font-size="14.00">bill_length_mm &lt;= 43.25?</text>
</g>
<!-- left_depth -->
<g id="node2" class="node">
<title>left_depth</title>
<polygon fill="none" stroke="black" points="265,-179 111,-179 111,-143 265,-143 265,-179"/>
<text text-anchor="middle" x="188" y="-155.95" font-family="Times,serif" font-size="14.00">bill_depth_mm &lt;= 14.8?</text>
</g>
<!-- root&#45;&gt;left_depth -->
<g id="edge1" class="edge">
<title>root&#45;&gt;left_depth</title>
<path fill="none" stroke="black" d="M257.81,-231.41C245.14,-218.82 227.71,-201.48 213.43,-187.29"/>
<polygon fill="black" stroke="black" points="216.08,-184.99 206.52,-180.42 211.15,-189.95 216.08,-184.99"/>
<text text-anchor="middle" x="252.04" y="-200.2" font-family="Times,serif" font-size="14.00">True</text>
</g>
<!-- right_depth -->
<g id="node3" class="node">
<title>right_depth</title>
<polygon fill="none" stroke="black" points="443.38,-179 282.62,-179 282.62,-143 443.38,-143 443.38,-179"/>
<text text-anchor="middle" x="363" y="-155.95" font-family="Times,serif" font-size="14.00">bill_depth_mm &lt;= 16.45?</text>
</g>
<!-- root&#45;&gt;right_depth -->
<g id="edge2" class="edge">
<title>root&#45;&gt;right_depth</title>
<path fill="none" stroke="black" d="M292.39,-231.41C305.2,-218.82 322.83,-201.48 337.28,-187.29"/>
<polygon fill="black" stroke="black" points="339.59,-189.92 344.27,-180.41 334.68,-184.93 339.59,-189.92"/>
<text text-anchor="middle" x="341.13" y="-200.2" font-family="Times,serif" font-size="14.00">False</text>
</g>
<!-- leaf0 -->
<g id="node4" class="node">
<title>leaf0</title>
<polygon fill="#ffffb3" stroke="black" points="124,-90.5 4,-90.5 0,-86.5 0,0 120,0 124,-4 124,-90.5"/>
<polyline fill="none" stroke="black" points="120,-86.5 0,-86.5"/>
<polyline fill="none" stroke="black" points="120,-86.5 120,0"/>
<polyline fill="none" stroke="black" points="120,-86.5 124,-90.5"/>
<text text-anchor="middle" x="62" y="-73.2" font-family="Times,serif" font-size="14.00">Gentoo</text>
<text text-anchor="middle" x="62" y="-56.7" font-family="Times,serif" font-size="14.00">count = 3</text>
<text text-anchor="middle" x="62" y="-40.2" font-family="Times,serif" font-size="14.00">p(Adelie) = 0.00</text>
<text text-anchor="middle" x="62" y="-23.7" font-family="Times,serif" font-size="14.00">p(Chinstrap) = 0.00</text>
<text text-anchor="middle" x="62" y="-7.2" font-family="Times,serif" font-size="14.00">p(Gentoo) = 1.00</text>
</g>
<!-- left_depth&#45;&gt;leaf0 -->
<g id="edge3" class="edge">
<title>left_depth&#45;&gt;leaf0</title>
<path fill="none" stroke="black" d="M168.86,-142.72C155.61,-130.76 137.21,-114.15 119.42,-98.09"/>
<polygon fill="black" stroke="black" points="122.2,-95.88 112.43,-91.77 117.51,-101.07 122.2,-95.88"/>
<text text-anchor="middle" x="159.99" y="-111.7" font-family="Times,serif" font-size="14.00">True</text>
</g>
<!-- leaf1 -->
<g id="node5" class="node">
<title>leaf1</title>
<polygon fill="#8dd3c7" stroke="black" points="266,-90.5 146,-90.5 142,-86.5 142,0 262,0 266,-4 266,-90.5"/>
<polyline fill="none" stroke="black" points="262,-86.5 142,-86.5"/>
<polyline fill="none" stroke="black" points="262,-86.5 262,0"/>
<polyline fill="none" stroke="black" points="262,-86.5 266,-90.5"/>
<text text-anchor="middle" x="204" y="-73.2" font-family="Times,serif" font-size="14.00">Adelie</text>
<text text-anchor="middle" x="204" y="-56.7" font-family="Times,serif" font-size="14.00">count = 121</text>
<text text-anchor="middle" x="204" y="-40.2" font-family="Times,serif" font-size="14.00">p(Adelie) = 0.97</text>
<text text-anchor="middle" x="204" y="-23.7" font-family="Times,serif" font-size="14.00">p(Chinstrap) = 0.03</text>
<text text-anchor="middle" x="204" y="-7.2" font-family="Times,serif" font-size="14.00">p(Gentoo) = 0.00</text>
</g>
<!-- left_depth&#45;&gt;leaf1 -->
<g id="edge4" class="edge">
<title>left_depth&#45;&gt;leaf1</title>
<path fill="none" stroke="black" d="M190.43,-142.72C191.98,-131.73 194.07,-116.81 196.16,-102"/>
<polygon fill="black" stroke="black" points="199.6,-102.65 197.53,-92.26 192.67,-101.67 199.6,-102.65"/>
<text text-anchor="middle" x="209.29" y="-111.7" font-family="Times,serif" font-size="14.00">False</text>
</g>
<!-- leaf2 -->
<g id="node6" class="node">
<title>leaf2</title>
<polygon fill="#ffffb3" stroke="black" points="416,-90.5 296,-90.5 292,-86.5 292,0 412,0 416,-4 416,-90.5"/>
<polyline fill="none" stroke="black" points="412,-86.5 292,-86.5"/>
<polyline fill="none" stroke="black" points="412,-86.5 412,0"/>
<polyline fill="none" stroke="black" points="412,-86.5 416,-90.5"/>
<text text-anchor="middle" x="354" y="-73.2" font-family="Times,serif" font-size="14.00">Gentoo</text>
<text text-anchor="middle" x="354" y="-56.7" font-family="Times,serif" font-size="14.00">count = 90</text>
<text text-anchor="middle" x="354" y="-40.2" font-family="Times,serif" font-size="14.00">p(Adelie) = 0.00</text>
<text text-anchor="middle" x="354" y="-23.7" font-family="Times,serif" font-size="14.00">p(Chinstrap) = 0.00</text>
<text text-anchor="middle" x="354" y="-7.2" font-family="Times,serif" font-size="14.00">p(Gentoo) = 1.00</text>
</g>
<!-- right_depth&#45;&gt;leaf2 -->
<g id="edge5" class="edge">
<title>right_depth&#45;&gt;leaf2</title>
<path fill="none" stroke="black" d="M361.63,-142.72C360.76,-131.73 359.58,-116.81 358.41,-102"/>
<polygon fill="black" stroke="black" points="361.92,-101.96 357.64,-92.27 354.94,-102.51 361.92,-101.96"/>
<text text-anchor="middle" x="372.84" y="-111.7" font-family="Times,serif" font-size="14.00">True</text>
</g>
<!-- leaf3 -->
<g id="node7" class="node">
<title>leaf3</title>
<polygon fill="#fb8072" stroke="black" points="558,-90.5 438,-90.5 434,-86.5 434,0 554,0 558,-4 558,-90.5"/>
<polyline fill="none" stroke="black" points="554,-86.5 434,-86.5"/>
<polyline fill="none" stroke="black" points="554,-86.5 554,0"/>
<polyline fill="none" stroke="black" points="554,-86.5 558,-90.5"/>
<text text-anchor="middle" x="496" y="-73.2" font-family="Times,serif" font-size="14.00">Chinstrap</text>
<text text-anchor="middle" x="496" y="-56.7" font-family="Times,serif" font-size="14.00">count = 59</text>
<text text-anchor="middle" x="496" y="-40.2" font-family="Times,serif" font-size="14.00">p(Adelie) = 0.07</text>
<text text-anchor="middle" x="496" y="-23.7" font-family="Times,serif" font-size="14.00">p(Chinstrap) = 0.85</text>
<text text-anchor="middle" x="496" y="-7.2" font-family="Times,serif" font-size="14.00">p(Gentoo) = 0.08</text>
</g>
<!-- right_depth&#45;&gt;leaf3 -->
<g id="edge6" class="edge">
<title>right_depth&#45;&gt;leaf3</title>
<path fill="none" stroke="black" d="M383.2,-142.72C397.19,-130.76 416.61,-114.15 435.39,-98.09"/>
<polygon fill="black" stroke="black" points="437.48,-100.9 442.81,-91.74 432.93,-95.58 437.48,-100.9"/>
<text text-anchor="middle" x="435.79" y="-111.7" font-family="Times,serif" font-size="14.00">False</text>
</g>
</g>
</svg>
