<?xml version="1.0" encoding="UTF-8" standalone="no"?>
<!DOCTYPE svg PUBLIC "-//W3C//DTD SVG 1.1//EN"
 "http://www.w3.org/Graphics/SVG/1.1/DTD/svg11.dtd">
<!-- Generated by graphviz version 12.2.1 (0)
 -->
<!-- Title: Tree Pages: 1 -->
<svg width="1068pt" height="552pt"
 viewBox="0.00 0.00 1067.62 552.00" xmlns="http://www.w3.org/2000/svg" xmlns:xlink="http://www.w3.org/1999/xlink">
<g id="graph0" class="graph" transform="scale(1 1) rotate(0) translate(4 548)">
<title>Tree</title>
<polygon fill="white" stroke="none" points="-4,4 -4,-548 1063.62,-548 1063.62,4 -4,4"/>
<!-- 0 -->
<g id="node1" class="node">
<title>0</title>
<path fill="#fceee5" stroke="black" d="M514,-544C514,-544 381,-544 381,-544 375,-544 369,-538 369,-532 369,-532 369,-473 369,-473 369,-467 375,-461 381,-461 381,-461 514,-461 514,-461 520,-461 526,-467 526,-473 526,-473 526,-532 526,-532 526,-538 520,-544 514,-544"/>
<text text-anchor="start" x="377" y="-526.7" font-family="Helvetica,sans-Serif" font-size="14.00">bill_length_mm ≤ 43.25</text>
<text text-anchor="start" x="412.25" y="-511.7" font-family="Helvetica,sans-Serif" font-size="14.00">gini = 0.636</text>
<text text-anchor="start" x="402.88" y="-496.7" font-family="Helvetica,sans-Serif" font-size="14.00">samples = 273</text>
<text text-anchor="start" x="386" y="-481.7" font-family="Helvetica,sans-Serif" font-size="14.00">value = [121, 54, 98]</text>
<text text-anchor="start" x="405.5" y="-466.7" font-family="Helvetica,sans-Serif" font-size="14.00">class = Adelie</text>
</g>
<!-- 1 -->
<g id="node2" class="node">
<title>1</title>
<path fill="#e78845" stroke="black" d="M424.75,-425C424.75,-425 302.25,-425 302.25,-425 296.25,-425 290.25,-419 290.25,-413 290.25,-413 290.25,-354 290.25,-354 290.25,-348 296.25,-342 302.25,-342 302.25,-342 424.75,-342 424.75,-342 430.75,-342 436.75,-348 436.75,-354 436.75,-354 436.75,-413 436.75,-413 436.75,-419 430.75,-425 424.75,-425"/>
<text text-anchor="start" x="298.25" y="-407.7" font-family="Helvetica,sans-Serif" font-size="14.00">bill_depth_mm ≤ 14.8</text>
<text text-anchor="start" x="328.25" y="-392.7" font-family="Helvetica,sans-Serif" font-size="14.00">gini = 0.108</text>
<text text-anchor="start" x="318.88" y="-377.7" font-family="Helvetica,sans-Serif" font-size="14.00">samples = 124</text>
<text text-anchor="start" x="309.5" y="-362.7" font-family="Helvetica,sans-Serif" font-size="14.00">value = [117, 4, 3]</text>
<text text-anchor="start" x="321.5" y="-347.7" font-family="Helvetica,sans-Serif" font-size="14.00">class = Adelie</text>
</g>
<!-- 0&#45;&gt;1 -->
<g id="edge1" class="edge">
<title>0&#45;&gt;1</title>
<path fill="none" stroke="black" d="M418.12,-460.58C412.08,-452.16 405.65,-443.2 399.4,-434.5"/>
<polygon fill="black" stroke="black" points="402.28,-432.51 393.6,-426.43 396.59,-436.59 402.28,-432.51"/>
<text text-anchor="middle" x="388.67" y="-444.07" font-family="Helvetica,sans-Serif" font-size="14.00">True</text>
</g>
<!-- 2 -->
<g id="node11" class="node">
<title>2</title>
<path fill="#c6a5f3" stroke="black" d="M597.5,-425C597.5,-425 467.5,-425 467.5,-425 461.5,-425 455.5,-419 455.5,-413 455.5,-413 455.5,-354 455.5,-354 455.5,-348 461.5,-342 467.5,-342 467.5,-342 597.5,-342 597.5,-342 603.5,-342 609.5,-348 609.5,-354 609.5,-354 609.5,-413 609.5,-413 609.5,-419 603.5,-425 597.5,-425"/>
<text text-anchor="start" x="463.5" y="-407.7" font-family="Helvetica,sans-Serif" font-size="14.00">bill_depth_mm ≤ 16.45</text>
<text text-anchor="start" x="501" y="-392.7" font-family="Helvetica,sans-Serif" font-size="14.00">gini = 0.48</text>
<text text-anchor="start" x="487.88" y="-377.7" font-family="Helvetica,sans-Serif" font-size="14.00">samples = 149</text>
<text text-anchor="start" x="478.5" y="-362.7" font-family="Helvetica,sans-Serif" font-size="14.00">value = [4, 50, 95]</text>
<text text-anchor="start" x="486.75" y="-347.7" font-family="Helvetica,sans-Serif" font-size="14.00">class = Gentoo</text>
</g>
<!-- 0&#45;&gt;2 -->
<g id="edge10" class="edge">
<title>0&#45;&gt;2</title>
<path fill="none" stroke="black" d="M477.23,-460.58C483.35,-452.16 489.85,-443.2 496.17,-434.5"/>
<polygon fill="black" stroke="black" points="499,-436.57 502.04,-426.42 493.33,-432.46 499,-436.57"/>
<text text-anchor="middle" x="506.84" y="-444.09" font-family="Helvetica,sans-Serif" font-size="14.00">False</text>
</g>
<!-- 5 -->
<g id="node3" class="node">
<title>5</title>
<path fill="#8139e5" stroke="black" d="M255,-298.5C255,-298.5 170,-298.5 170,-298.5 164,-298.5 158,-292.5 158,-286.5 158,-286.5 158,-242.5 158,-242.5 158,-236.5 164,-230.5 170,-230.5 170,-230.5 255,-230.5 255,-230.5 261,-230.5 267,-236.5 267,-242.5 267,-242.5 267,-286.5 267,-286.5 267,-292.5 261,-298.5 255,-298.5"/>
<text text-anchor="start" x="184.75" y="-281.2" font-family="Helvetica,sans-Serif" font-size="14.00">gini = 0.0</text>
<text text-anchor="start" x="175.38" y="-266.2" font-family="Helvetica,sans-Serif" font-size="14.00">samples = 3</text>
<text text-anchor="start" x="166" y="-251.2" font-family="Helvetica,sans-Serif" font-size="14.00">value = [0, 0, 3]</text>
<text text-anchor="start" x="166.75" y="-236.2" font-family="Helvetica,sans-Serif" font-size="14.00">class = Gentoo</text>
</g>
<!-- 1&#45;&gt;5 -->
<g id="edge2" class="edge">
<title>1&#45;&gt;5</title>
<path fill="none" stroke="black" d="M310.69,-341.58C295.76,-330.01 279.52,-317.43 264.63,-305.89"/>
<polygon fill="black" stroke="black" points="266.8,-303.15 256.75,-299.79 262.51,-308.68 266.8,-303.15"/>
</g>
<!-- 6 -->
<g id="node4" class="node">
<title>6</title>
<path fill="#e68540" stroke="black" d="M430,-306C430,-306 297,-306 297,-306 291,-306 285,-300 285,-294 285,-294 285,-235 285,-235 285,-229 291,-223 297,-223 297,-223 430,-223 430,-223 436,-223 442,-229 442,-235 442,-235 442,-294 442,-294 442,-300 436,-306 430,-306"/>
<text text-anchor="start" x="293" y="-288.7" font-family="Helvetica,sans-Serif" font-size="14.00">bill_length_mm ≤ 42.35</text>
<text text-anchor="start" x="328.25" y="-273.7" font-family="Helvetica,sans-Serif" font-size="14.00">gini = 0.064</text>
<text text-anchor="start" x="318.88" y="-258.7" font-family="Helvetica,sans-Serif" font-size="14.00">samples = 121</text>
<text text-anchor="start" x="309.5" y="-243.7" font-family="Helvetica,sans-Serif" font-size="14.00">value = [117, 4, 0]</text>
<text text-anchor="start" x="321.5" y="-228.7" font-family="Helvetica,sans-Serif" font-size="14.00">class = Adelie</text>
</g>
<!-- 1&#45;&gt;6 -->
<g id="edge3" class="edge">
<title>1&#45;&gt;6</title>
<path fill="none" stroke="black" d="M363.5,-341.58C363.5,-333.79 363.5,-325.53 363.5,-317.45"/>
<polygon fill="black" stroke="black" points="367,-317.71 363.5,-307.71 360,-317.71 367,-317.71"/>
</g>
<!-- 13 -->
<g id="node5" class="node">
<title>13</title>
<path fill="#e5823b" stroke="black" d="M254.5,-187C254.5,-187 124.5,-187 124.5,-187 118.5,-187 112.5,-181 112.5,-175 112.5,-175 112.5,-116 112.5,-116 112.5,-110 118.5,-104 124.5,-104 124.5,-104 254.5,-104 254.5,-104 260.5,-104 266.5,-110 266.5,-116 266.5,-116 266.5,-175 266.5,-175 266.5,-181 260.5,-187 254.5,-187"/>
<text text-anchor="start" x="120.5" y="-169.7" font-family="Helvetica,sans-Serif" font-size="14.00">bill_depth_mm ≤ 16.65</text>
<text text-anchor="start" x="154.25" y="-154.7" font-family="Helvetica,sans-Serif" font-size="14.00">gini = 0.018</text>
<text text-anchor="start" x="144.88" y="-139.7" font-family="Helvetica,sans-Serif" font-size="14.00">samples = 112</text>
<text text-anchor="start" x="135.88" y="-124.7" font-family="Helvetica,sans-Serif" font-size="14.00">value = [111, 1, 0]</text>
<text text-anchor="start" x="147.5" y="-109.7" font-family="Helvetica,sans-Serif" font-size="14.00">class = Adelie</text>
</g>
<!-- 6&#45;&gt;13 -->
<g id="edge4" class="edge">
<title>6&#45;&gt;13</title>
<path fill="none" stroke="black" d="M302.64,-222.58C288.74,-213.23 273.85,-203.21 259.59,-193.63"/>
<polygon fill="black" stroke="black" points="261.83,-190.92 251.58,-188.24 257.92,-196.73 261.83,-190.92"/>
</g>
<!-- 14 -->
<g id="node8" class="node">
<title>14</title>
<path fill="#f2c09c" stroke="black" d="M428.5,-187C428.5,-187 298.5,-187 298.5,-187 292.5,-187 286.5,-181 286.5,-175 286.5,-175 286.5,-116 286.5,-116 286.5,-110 292.5,-104 298.5,-104 298.5,-104 428.5,-104 428.5,-104 434.5,-104 440.5,-110 440.5,-116 440.5,-116 440.5,-175 440.5,-175 440.5,-181 434.5,-187 428.5,-187"/>
<text text-anchor="start" x="294.5" y="-169.7" font-family="Helvetica,sans-Serif" font-size="14.00">bill_depth_mm ≤ 17.45</text>
<text text-anchor="start" x="328.25" y="-154.7" font-family="Helvetica,sans-Serif" font-size="14.00">gini = 0.444</text>
<text text-anchor="start" x="326.38" y="-139.7" font-family="Helvetica,sans-Serif" font-size="14.00">samples = 9</text>
<text text-anchor="start" x="317" y="-124.7" font-family="Helvetica,sans-Serif" font-size="14.00">value = [6, 3, 0]</text>
<text text-anchor="start" x="321.5" y="-109.7" font-family="Helvetica,sans-Serif" font-size="14.00">class = Adelie</text>
</g>
<!-- 6&#45;&gt;14 -->
<g id="edge7" class="edge">
<title>6&#45;&gt;14</title>
<path fill="none" stroke="black" d="M363.5,-222.58C363.5,-214.79 363.5,-206.53 363.5,-198.45"/>
<polygon fill="black" stroke="black" points="367,-198.71 363.5,-188.71 360,-198.71 367,-198.71"/>
</g>
<!-- 17 -->
<g id="node6" class="node">
<title>17</title>
<path fill="#e99355" stroke="black" d="M97,-68C97,-68 12,-68 12,-68 6,-68 0,-62 0,-56 0,-56 0,-12 0,-12 0,-6 6,0 12,0 12,0 97,0 97,0 103,0 109,-6 109,-12 109,-12 109,-56 109,-56 109,-62 103,-68 97,-68"/>
<text text-anchor="start" x="19.25" y="-50.7" font-family="Helvetica,sans-Serif" font-size="14.00">gini = 0.219</text>
<text text-anchor="start" x="17.38" y="-35.7" font-family="Helvetica,sans-Serif" font-size="14.00">samples = 8</text>
<text text-anchor="start" x="8" y="-20.7" font-family="Helvetica,sans-Serif" font-size="14.00">value = [7, 1, 0]</text>
<text text-anchor="start" x="12.5" y="-5.7" font-family="Helvetica,sans-Serif" font-size="14.00">class = Adelie</text>
</g>
<!-- 13&#45;&gt;17 -->
<g id="edge5" class="edge">
<title>13&#45;&gt;17</title>
<path fill="none" stroke="black" d="M139.23,-103.73C127.87,-94.51 115.82,-84.74 104.47,-75.53"/>
<polygon fill="black" stroke="black" points="106.7,-72.83 96.73,-69.25 102.29,-78.27 106.7,-72.83"/>
</g>
<!-- 18 -->
<g id="node7" class="node">
<title>18</title>
<path fill="#e58139" stroke="black" d="M239.5,-68C239.5,-68 139.5,-68 139.5,-68 133.5,-68 127.5,-62 127.5,-56 127.5,-56 127.5,-12 127.5,-12 127.5,-6 133.5,0 139.5,0 139.5,0 239.5,0 239.5,0 245.5,0 251.5,-6 251.5,-12 251.5,-12 251.5,-56 251.5,-56 251.5,-62 245.5,-68 239.5,-68"/>
<text text-anchor="start" x="161.75" y="-50.7" font-family="Helvetica,sans-Serif" font-size="14.00">gini = 0.0</text>
<text text-anchor="start" x="144.88" y="-35.7" font-family="Helvetica,sans-Serif" font-size="14.00">samples = 104</text>
<text text-anchor="start" x="135.5" y="-20.7" font-family="Helvetica,sans-Serif" font-size="14.00">value = [104, 0, 0]</text>
<text text-anchor="start" x="147.5" y="-5.7" font-family="Helvetica,sans-Serif" font-size="14.00">class = Adelie</text>
</g>
<!-- 13&#45;&gt;18 -->
<g id="edge6" class="edge">
<title>13&#45;&gt;18</title>
<path fill="none" stroke="black" d="M189.5,-103.73C189.5,-95.88 189.5,-87.63 189.5,-79.67"/>
<polygon fill="black" stroke="black" points="193,-79.81 189.5,-69.81 186,-79.81 193,-79.81"/>
</g>
<!-- 15 -->
<g id="node9" class="node">
<title>15</title>
<path fill="#39e581" stroke="black" d="M377.62,-68C377.62,-68 281.38,-68 281.38,-68 275.38,-68 269.38,-62 269.38,-56 269.38,-56 269.38,-12 269.38,-12 269.38,-6 275.38,0 281.38,0 281.38,0 377.62,0 377.62,0 383.62,0 389.62,-6 389.62,-12 389.62,-12 389.62,-56 389.62,-56 389.62,-62 383.62,-68 377.62,-68"/>
<text text-anchor="start" x="301.75" y="-50.7" font-family="Helvetica,sans-Serif" font-size="14.00">gini = 0.0</text>
<text text-anchor="start" x="292.38" y="-35.7" font-family="Helvetica,sans-Serif" font-size="14.00">samples = 3</text>
<text text-anchor="start" x="283" y="-20.7" font-family="Helvetica,sans-Serif" font-size="14.00">value = [0, 3, 0]</text>
<text text-anchor="start" x="277.38" y="-5.7" font-family="Helvetica,sans-Serif" font-size="14.00">class = Chinstrap</text>
</g>
<!-- 14&#45;&gt;15 -->
<g id="edge8" class="edge">
<title>14&#45;&gt;15</title>
<path fill="none" stroke="black" d="M350.84,-103.73C348.35,-95.7 345.72,-87.24 343.2,-79.11"/>
<polygon fill="black" stroke="black" points="346.6,-78.26 340.29,-69.75 339.91,-80.33 346.6,-78.26"/>
</g>
<!-- 16 -->
<g id="node10" class="node">
<title>16</title>
<path fill="#e58139" stroke="black" d="M505,-68C505,-68 420,-68 420,-68 414,-68 408,-62 408,-56 408,-56 408,-12 408,-12 408,-6 414,0 420,0 420,0 505,0 505,0 511,0 517,-6 517,-12 517,-12 517,-56 517,-56 517,-62 511,-68 505,-68"/>
<text text-anchor="start" x="434.75" y="-50.7" font-family="Helvetica,sans-Serif" font-size="14.00">gini = 0.0</text>
<text text-anchor="start" x="425.38" y="-35.7" font-family="Helvetica,sans-Serif" font-size="14.00">samples = 6</text>
<text text-anchor="start" x="416" y="-20.7" font-family="Helvetica,sans-Serif" font-size="14.00">value = [6, 0, 0]</text>
<text text-anchor="start" x="420.5" y="-5.7" font-family="Helvetica,sans-Serif" font-size="14.00">class = Adelie</text>
</g>
<!-- 14&#45;&gt;16 -->
<g id="edge9" class="edge">
<title>14&#45;&gt;16</title>
<path fill="none" stroke="black" d="M400.36,-103.73C408.36,-94.88 416.83,-85.51 424.86,-76.63"/>
<polygon fill="black" stroke="black" points="427.27,-79.19 431.38,-69.42 422.08,-74.49 427.27,-79.19"/>
</g>
<!-- 3 -->
<g id="node12" class="node">
<title>3</title>
<path fill="#8139e5" stroke="black" d="M578.75,-298.5C578.75,-298.5 486.25,-298.5 486.25,-298.5 480.25,-298.5 474.25,-292.5 474.25,-286.5 474.25,-286.5 474.25,-242.5 474.25,-242.5 474.25,-236.5 480.25,-230.5 486.25,-230.5 486.25,-230.5 578.75,-230.5 578.75,-230.5 584.75,-230.5 590.75,-236.5 590.75,-242.5 590.75,-242.5 590.75,-286.5 590.75,-286.5 590.75,-292.5 584.75,-298.5 578.75,-298.5"/>
<text text-anchor="start" x="504.75" y="-281.2" font-family="Helvetica,sans-Serif" font-size="14.00">gini = 0.0</text>
<text text-anchor="start" x="491.62" y="-266.2" font-family="Helvetica,sans-Serif" font-size="14.00">samples = 90</text>
<text text-anchor="start" x="482.25" y="-251.2" font-family="Helvetica,sans-Serif" font-size="14.00">value = [0, 0, 90]</text>
<text text-anchor="start" x="486.75" y="-236.2" font-family="Helvetica,sans-Serif" font-size="14.00">class = Gentoo</text>
</g>
<!-- 2&#45;&gt;3 -->
<g id="edge11" class="edge">
<title>2&#45;&gt;3</title>
<path fill="none" stroke="black" d="M532.5,-341.58C532.5,-331.43 532.5,-320.5 532.5,-310.18"/>
<polygon fill="black" stroke="black" points="536,-310.37 532.5,-300.37 529,-310.37 536,-310.37"/>
</g>
<!-- 4 -->
<g id="node13" class="node">
<title>4</title>
<path fill="#5ae996" stroke="black" d="M745.75,-306C745.75,-306 623.25,-306 623.25,-306 617.25,-306 611.25,-300 611.25,-294 611.25,-294 611.25,-235 611.25,-235 611.25,-229 617.25,-223 623.25,-223 623.25,-223 745.75,-223 745.75,-223 751.75,-223 757.75,-229 757.75,-235 757.75,-235 757.75,-294 757.75,-294 757.75,-300 751.75,-306 745.75,-306"/>
<text text-anchor="start" x="619.25" y="-288.7" font-family="Helvetica,sans-Serif" font-size="14.00">bill_depth_mm ≤ 17.2</text>
<text text-anchor="start" x="653" y="-273.7" font-family="Helvetica,sans-Serif" font-size="14.00">gini = 0.27</text>
<text text-anchor="start" x="643.62" y="-258.7" font-family="Helvetica,sans-Serif" font-size="14.00">samples = 59</text>
<text text-anchor="start" x="634.25" y="-243.7" font-family="Helvetica,sans-Serif" font-size="14.00">value = [4, 50, 5]</text>
<text text-anchor="start" x="632.38" y="-228.7" font-family="Helvetica,sans-Serif" font-size="14.00">class = Chinstrap</text>
</g>
<!-- 2&#45;&gt;4 -->
<g id="edge12" class="edge">
<title>2&#45;&gt;4</title>
<path fill="none" stroke="black" d="M585.66,-341.58C597.58,-332.41 610.32,-322.6 622.56,-313.17"/>
<polygon fill="black" stroke="black" points="624.38,-316.19 630.17,-307.32 620.11,-310.65 624.38,-316.19"/>
</g>
<!-- 7 -->
<g id="node14" class="node">
<title>7</title>
<path fill="#ffffff" stroke="black" d="M751,-187C751,-187 618,-187 618,-187 612,-187 606,-181 606,-175 606,-175 606,-116 606,-116 606,-110 612,-104 618,-104 618,-104 751,-104 751,-104 757,-104 763,-110 763,-116 763,-116 763,-175 763,-175 763,-181 757,-187 751,-187"/>
<text text-anchor="start" x="614" y="-169.7" font-family="Helvetica,sans-Serif" font-size="14.00">bill_length_mm ≤ 48.35</text>
<text text-anchor="start" x="656.75" y="-154.7" font-family="Helvetica,sans-Serif" font-size="14.00">gini = 0.5</text>
<text text-anchor="start" x="643.62" y="-139.7" font-family="Helvetica,sans-Serif" font-size="14.00">samples = 10</text>
<text text-anchor="start" x="638" y="-124.7" font-family="Helvetica,sans-Serif" font-size="14.00">value = [0, 5, 5]</text>
<text text-anchor="start" x="632.38" y="-109.7" font-family="Helvetica,sans-Serif" font-size="14.00">class = Chinstrap</text>
</g>
<!-- 4&#45;&gt;7 -->
<g id="edge13" class="edge">
<title>4&#45;&gt;7</title>
<path fill="none" stroke="black" d="M684.5,-222.58C684.5,-214.79 684.5,-206.53 684.5,-198.45"/>
<polygon fill="black" stroke="black" points="688,-198.71 684.5,-188.71 681,-198.71 688,-198.71"/>
</g>
<!-- 8 -->
<g id="node17" class="node">
<title>8</title>
<path fill="#4be78c" stroke="black" d="M924.62,-187C924.62,-187 798.38,-187 798.38,-187 792.38,-187 786.38,-181 786.38,-175 786.38,-175 786.38,-116 786.38,-116 786.38,-110 792.38,-104 798.38,-104 798.38,-104 924.62,-104 924.62,-104 930.62,-104 936.62,-110 936.62,-116 936.62,-116 936.62,-175 936.62,-175 936.62,-181 930.62,-187 924.62,-187"/>
<text text-anchor="start" x="794.75" y="-169.7" font-family="Helvetica,sans-Serif" font-size="14.00">bill_length_mm ≤ 46.2</text>
<text text-anchor="start" x="830" y="-154.7" font-family="Helvetica,sans-Serif" font-size="14.00">gini = 0.15</text>
<text text-anchor="start" x="820.62" y="-139.7" font-family="Helvetica,sans-Serif" font-size="14.00">samples = 49</text>
<text text-anchor="start" x="794.38" y="-124.7" font-family="Helvetica,sans-Serif" font-size="14.00">value = [4.0, 45.0, 0.0]</text>
<text text-anchor="start" x="809.38" y="-109.7" font-family="Helvetica,sans-Serif" font-size="14.00">class = Chinstrap</text>
</g>
<!-- 4&#45;&gt;8 -->
<g id="edge16" class="edge">
<title>4&#45;&gt;8</title>
<path fill="none" stroke="black" d="M746.41,-222.58C760.55,-213.23 775.7,-203.21 790.21,-193.63"/>
<polygon fill="black" stroke="black" points="791.95,-196.67 798.37,-188.23 788.09,-190.83 791.95,-196.67"/>
</g>
<!-- 9 -->
<g id="node15" class="node">
<title>9</title>
<path fill="#39e581" stroke="black" d="M643.62,-68C643.62,-68 547.38,-68 547.38,-68 541.38,-68 535.38,-62 535.38,-56 535.38,-56 535.38,-12 535.38,-12 535.38,-6 541.38,0 547.38,0 547.38,0 643.62,0 643.62,0 649.62,0 655.62,-6 655.62,-12 655.62,-12 655.62,-56 655.62,-56 655.62,-62 649.62,-68 643.62,-68"/>
<text text-anchor="start" x="567.75" y="-50.7" font-family="Helvetica,sans-Serif" font-size="14.00">gini = 0.0</text>
<text text-anchor="start" x="558.38" y="-35.7" font-family="Helvetica,sans-Serif" font-size="14.00">samples = 5</text>
<text text-anchor="start" x="549" y="-20.7" font-family="Helvetica,sans-Serif" font-size="14.00">value = [0, 5, 0]</text>
<text text-anchor="start" x="543.38" y="-5.7" font-family="Helvetica,sans-Serif" font-size="14.00">class = Chinstrap</text>
</g>
<!-- 7&#45;&gt;9 -->
<g id="edge14" class="edge">
<title>7&#45;&gt;9</title>
<path fill="none" stroke="black" d="M651.36,-103.73C644.32,-95.06 636.87,-85.9 629.78,-77.18"/>
<polygon fill="black" stroke="black" points="632.54,-75.03 623.52,-69.47 627.11,-79.44 632.54,-75.03"/>
</g>
<!-- 10 -->
<g id="node16" class="node">
<title>10</title>
<path fill="#8139e5" stroke="black" d="M771,-68C771,-68 686,-68 686,-68 680,-68 674,-62 674,-56 674,-56 674,-12 674,-12 674,-6 680,0 686,0 686,0 771,0 771,0 777,0 783,-6 783,-12 783,-12 783,-56 783,-56 783,-62 777,-68 771,-68"/>
<text text-anchor="start" x="700.75" y="-50.7" font-family="Helvetica,sans-Serif" font-size="14.00">gini = 0.0</text>
<text text-anchor="start" x="691.38" y="-35.7" font-family="Helvetica,sans-Serif" font-size="14.00">samples = 5</text>
<text text-anchor="start" x="682" y="-20.7" font-family="Helvetica,sans-Serif" font-size="14.00">value = [0, 0, 5]</text>
<text text-anchor="start" x="682.75" y="-5.7" font-family="Helvetica,sans-Serif" font-size="14.00">class = Gentoo</text>
</g>
<!-- 7&#45;&gt;10 -->
<g id="edge15" class="edge">
<title>7&#45;&gt;10</title>
<path fill="none" stroke="black" d="M700.88,-103.73C704.15,-95.61 707.58,-87.05 710.89,-78.84"/>
<polygon fill="black" stroke="black" points="714.07,-80.29 714.56,-69.7 707.58,-77.68 714.07,-80.29"/>
</g>
<!-- 11 -->
<g id="node18" class="node">
<title>11</title>
<path fill="#bdf6d5" stroke="black" d="M909.62,-68C909.62,-68 813.38,-68 813.38,-68 807.38,-68 801.38,-62 801.38,-56 801.38,-56 801.38,-12 801.38,-12 801.38,-6 807.38,0 813.38,0 813.38,0 909.62,0 909.62,0 915.62,0 921.62,-6 921.62,-12 921.62,-12 921.62,-56 921.62,-56 921.62,-62 915.62,-68 909.62,-68"/>
<text text-anchor="start" x="830" y="-50.7" font-family="Helvetica,sans-Serif" font-size="14.00">gini = 0.48</text>
<text text-anchor="start" x="820.62" y="-35.7" font-family="Helvetica,sans-Serif" font-size="14.00">samples = 10</text>
<text text-anchor="start" x="815" y="-20.7" font-family="Helvetica,sans-Serif" font-size="14.00">value = [4, 6, 0]</text>
<text text-anchor="start" x="809.38" y="-5.7" font-family="Helvetica,sans-Serif" font-size="14.00">class = Chinstrap</text>
</g>
<!-- 8&#45;&gt;11 -->
<g id="edge17" class="edge">
<title>8&#45;&gt;11</title>
<path fill="none" stroke="black" d="M861.5,-103.73C861.5,-95.88 861.5,-87.63 861.5,-79.67"/>
<polygon fill="black" stroke="black" points="865,-79.81 861.5,-69.81 858,-79.81 865,-79.81"/>
</g>
<!-- 12 -->
<g id="node19" class="node">
<title>12</title>
<path fill="#39e581" stroke="black" d="M1047.62,-68C1047.62,-68 951.38,-68 951.38,-68 945.38,-68 939.38,-62 939.38,-56 939.38,-56 939.38,-12 939.38,-12 939.38,-6 945.38,0 951.38,0 951.38,0 1047.62,0 1047.62,0 1053.62,0 1059.62,-6 1059.62,-12 1059.62,-12 1059.62,-56 1059.62,-56 1059.62,-62 1053.62,-68 1047.62,-68"/>
<text text-anchor="start" x="971.75" y="-50.7" font-family="Helvetica,sans-Serif" font-size="14.00">gini = 0.0</text>
<text text-anchor="start" x="958.62" y="-35.7" font-family="Helvetica,sans-Serif" font-size="14.00">samples = 39</text>
<text text-anchor="start" x="949.25" y="-20.7" font-family="Helvetica,sans-Serif" font-size="14.00">value = [0, 39, 0]</text>
<text text-anchor="start" x="947.38" y="-5.7" font-family="Helvetica,sans-Serif" font-size="14.00">class = Chinstrap</text>
</g>
<!-- 8&#45;&gt;12 -->
<g id="edge18" class="edge">
<title>8&#45;&gt;12</title>
<path fill="none" stroke="black" d="M912.89,-103.73C924.61,-94.42 937.06,-84.54 948.76,-75.26"/>
<polygon fill="black" stroke="black" points="950.69,-78.2 956.35,-69.24 946.34,-72.71 950.69,-78.2"/>
</g>
</g>
</svg>
