<?xml version="1.0" encoding="UTF-8" standalone="no"?>
<!DOCTYPE svg PUBLIC "-//W3C//DTD SVG 1.1//EN"
 "http://www.w3.org/Graphics/SVG/1.1/DTD/svg11.dtd">
<!-- Generated by graphviz version 12.2.1 (0)
 -->
<!-- Title: Tree Pages: 1 -->
<svg width="1188pt" height="909pt"
 viewBox="0.00 0.00 1187.62 909.00" xmlns="http://www.w3.org/2000/svg" xmlns:xlink="http://www.w3.org/1999/xlink">
<g id="graph0" class="graph" transform="scale(1 1) rotate(0) translate(4 905)">
<title>Tree</title>
<polygon fill="white" stroke="none" points="-4,4 -4,-905 1183.62,-905 1183.62,4 -4,4"/>
<!-- 0 -->
<g id="node1" class="node">
<title>0</title>
<path fill="#fceee5" stroke="black" d="M602,-901C602,-901 469,-901 469,-901 463,-901 457,-895 457,-889 457,-889 457,-830 457,-830 457,-824 463,-818 469,-818 469,-818 602,-818 602,-818 608,-818 614,-824 614,-830 614,-830 614,-889 614,-889 614,-895 608,-901 602,-901"/>
<text text-anchor="start" x="465" y="-883.7" font-family="Helvetica,sans-Serif" font-size="14.00">bill_length_mm ≤ 43.25</text>
<text text-anchor="start" x="500.25" y="-868.7" font-family="Helvetica,sans-Serif" font-size="14.00">gini = 0.636</text>
<text text-anchor="start" x="490.88" y="-853.7" font-family="Helvetica,sans-Serif" font-size="14.00">samples = 273</text>
<text text-anchor="start" x="474" y="-838.7" font-family="Helvetica,sans-Serif" font-size="14.00">value = [121, 54, 98]</text>
<text text-anchor="start" x="493.5" y="-823.7" font-family="Helvetica,sans-Serif" font-size="14.00">class = Adelie</text>
</g>
<!-- 1 -->
<g id="node2" class="node">
<title>1</title>
<path fill="#e78845" stroke="black" d="M512.75,-782C512.75,-782 390.25,-782 390.25,-782 384.25,-782 378.25,-776 378.25,-770 378.25,-770 378.25,-711 378.25,-711 378.25,-705 384.25,-699 390.25,-699 390.25,-699 512.75,-699 512.75,-699 518.75,-699 524.75,-705 524.75,-711 524.75,-711 524.75,-770 524.75,-770 524.75,-776 518.75,-782 512.75,-782"/>
<text text-anchor="start" x="386.25" y="-764.7" font-family="Helvetica,sans-Serif" font-size="14.00">bill_depth_mm ≤ 14.8</text>
<text text-anchor="start" x="416.25" y="-749.7" font-family="Helvetica,sans-Serif" font-size="14.00">gini = 0.108</text>
<text text-anchor="start" x="406.88" y="-734.7" font-family="Helvetica,sans-Serif" font-size="14.00">samples = 124</text>
<text text-anchor="start" x="397.5" y="-719.7" font-family="Helvetica,sans-Serif" font-size="14.00">value = [117, 4, 3]</text>
<text text-anchor="start" x="409.5" y="-704.7" font-family="Helvetica,sans-Serif" font-size="14.00">class = Adelie</text>
</g>
<!-- 0&#45;&gt;1 -->
<g id="edge1" class="edge">
<title>0&#45;&gt;1</title>
<path fill="none" stroke="black" d="M506.12,-817.58C500.08,-809.16 493.65,-800.2 487.4,-791.5"/>
<polygon fill="black" stroke="black" points="490.28,-789.51 481.6,-783.43 484.59,-793.59 490.28,-789.51"/>
<text text-anchor="middle" x="476.67" y="-801.07" font-family="Helvetica,sans-Serif" font-size="14.00">True</text>
</g>
<!-- 12 -->
<g id="node13" class="node">
<title>12</title>
<path fill="#c6a5f3" stroke="black" d="M687.5,-782C687.5,-782 557.5,-782 557.5,-782 551.5,-782 545.5,-776 545.5,-770 545.5,-770 545.5,-711 545.5,-711 545.5,-705 551.5,-699 557.5,-699 557.5,-699 687.5,-699 687.5,-699 693.5,-699 699.5,-705 699.5,-711 699.5,-711 699.5,-770 699.5,-770 699.5,-776 693.5,-782 687.5,-782"/>
<text text-anchor="start" x="553.5" y="-764.7" font-family="Helvetica,sans-Serif" font-size="14.00">bill_depth_mm ≤ 16.45</text>
<text text-anchor="start" x="591" y="-749.7" font-family="Helvetica,sans-Serif" font-size="14.00">gini = 0.48</text>
<text text-anchor="start" x="577.88" y="-734.7" font-family="Helvetica,sans-Serif" font-size="14.00">samples = 149</text>
<text text-anchor="start" x="568.5" y="-719.7" font-family="Helvetica,sans-Serif" font-size="14.00">value = [4, 50, 95]</text>
<text text-anchor="start" x="576.75" y="-704.7" font-family="Helvetica,sans-Serif" font-size="14.00">class = Gentoo</text>
</g>
<!-- 0&#45;&gt;12 -->
<g id="edge12" class="edge">
<title>0&#45;&gt;12</title>
<path fill="none" stroke="black" d="M565.93,-817.58C572.26,-809.07 578.99,-800.01 585.52,-791.23"/>
<polygon fill="black" stroke="black" points="588.17,-793.53 591.33,-783.41 582.56,-789.35 588.17,-793.53"/>
<text text-anchor="middle" x="595.87" y="-801.13" font-family="Helvetica,sans-Serif" font-size="14.00">False</text>
</g>
<!-- 2 -->
<g id="node3" class="node">
<title>2</title>
<path fill="#8139e5" stroke="black" d="M343,-655.5C343,-655.5 258,-655.5 258,-655.5 252,-655.5 246,-649.5 246,-643.5 246,-643.5 246,-599.5 246,-599.5 246,-593.5 252,-587.5 258,-587.5 258,-587.5 343,-587.5 343,-587.5 349,-587.5 355,-593.5 355,-599.5 355,-599.5 355,-643.5 355,-643.5 355,-649.5 349,-655.5 343,-655.5"/>
<text text-anchor="start" x="272.75" y="-638.2" font-family="Helvetica,sans-Serif" font-size="14.00">gini = 0.0</text>
<text text-anchor="start" x="263.38" y="-623.2" font-family="Helvetica,sans-Serif" font-size="14.00">samples = 3</text>
<text text-anchor="start" x="254" y="-608.2" font-family="Helvetica,sans-Serif" font-size="14.00">value = [0, 0, 3]</text>
<text text-anchor="start" x="254.75" y="-593.2" font-family="Helvetica,sans-Serif" font-size="14.00">class = Gentoo</text>
</g>
<!-- 1&#45;&gt;2 -->
<g id="edge2" class="edge">
<title>1&#45;&gt;2</title>
<path fill="none" stroke="black" d="M398.69,-698.58C383.76,-687.01 367.52,-674.43 352.63,-662.89"/>
<polygon fill="black" stroke="black" points="354.8,-660.15 344.75,-656.79 350.51,-665.68 354.8,-660.15"/>
</g>
<!-- 3 -->
<g id="node4" class="node">
<title>3</title>
<path fill="#e68540" stroke="black" d="M518,-663C518,-663 385,-663 385,-663 379,-663 373,-657 373,-651 373,-651 373,-592 373,-592 373,-586 379,-580 385,-580 385,-580 518,-580 518,-580 524,-580 530,-586 530,-592 530,-592 530,-651 530,-651 530,-657 524,-663 518,-663"/>
<text text-anchor="start" x="381" y="-645.7" font-family="Helvetica,sans-Serif" font-size="14.00">bill_length_mm ≤ 42.35</text>
<text text-anchor="start" x="416.25" y="-630.7" font-family="Helvetica,sans-Serif" font-size="14.00">gini = 0.064</text>
<text text-anchor="start" x="406.88" y="-615.7" font-family="Helvetica,sans-Serif" font-size="14.00">samples = 121</text>
<text text-anchor="start" x="397.5" y="-600.7" font-family="Helvetica,sans-Serif" font-size="14.00">value = [117, 4, 0]</text>
<text text-anchor="start" x="409.5" y="-585.7" font-family="Helvetica,sans-Serif" font-size="14.00">class = Adelie</text>
</g>
<!-- 1&#45;&gt;3 -->
<g id="edge3" class="edge">
<title>1&#45;&gt;3</title>
<path fill="none" stroke="black" d="M451.5,-698.58C451.5,-690.79 451.5,-682.53 451.5,-674.45"/>
<polygon fill="black" stroke="black" points="455,-674.71 451.5,-664.71 448,-674.71 455,-674.71"/>
</g>
<!-- 4 -->
<g id="node5" class="node">
<title>4</title>
<path fill="#e5823b" stroke="black" d="M340.5,-544C340.5,-544 210.5,-544 210.5,-544 204.5,-544 198.5,-538 198.5,-532 198.5,-532 198.5,-473 198.5,-473 198.5,-467 204.5,-461 210.5,-461 210.5,-461 340.5,-461 340.5,-461 346.5,-461 352.5,-467 352.5,-473 352.5,-473 352.5,-532 352.5,-532 352.5,-538 346.5,-544 340.5,-544"/>
<text text-anchor="start" x="206.5" y="-526.7" font-family="Helvetica,sans-Serif" font-size="14.00">bill_depth_mm ≤ 16.65</text>
<text text-anchor="start" x="240.25" y="-511.7" font-family="Helvetica,sans-Serif" font-size="14.00">gini = 0.018</text>
<text text-anchor="start" x="230.88" y="-496.7" font-family="Helvetica,sans-Serif" font-size="14.00">samples = 112</text>
<text text-anchor="start" x="221.88" y="-481.7" font-family="Helvetica,sans-Serif" font-size="14.00">value = [111, 1, 0]</text>
<text text-anchor="start" x="233.5" y="-466.7" font-family="Helvetica,sans-Serif" font-size="14.00">class = Adelie</text>
</g>
<!-- 3&#45;&gt;4 -->
<g id="edge4" class="edge">
<title>3&#45;&gt;4</title>
<path fill="none" stroke="black" d="M389.94,-579.58C375.88,-570.23 360.81,-560.21 346.39,-550.63"/>
<polygon fill="black" stroke="black" points="348.55,-547.86 338.28,-545.24 344.67,-553.69 348.55,-547.86"/>
</g>
<!-- 9 -->
<g id="node10" class="node">
<title>9</title>
<path fill="#f2c09c" stroke="black" d="M516.5,-544C516.5,-544 386.5,-544 386.5,-544 380.5,-544 374.5,-538 374.5,-532 374.5,-532 374.5,-473 374.5,-473 374.5,-467 380.5,-461 386.5,-461 386.5,-461 516.5,-461 516.5,-461 522.5,-461 528.5,-467 528.5,-473 528.5,-473 528.5,-532 528.5,-532 528.5,-538 522.5,-544 516.5,-544"/>
<text text-anchor="start" x="382.5" y="-526.7" font-family="Helvetica,sans-Serif" font-size="14.00">bill_depth_mm ≤ 17.45</text>
<text text-anchor="start" x="416.25" y="-511.7" font-family="Helvetica,sans-Serif" font-size="14.00">gini = 0.444</text>
<text text-anchor="start" x="414.38" y="-496.7" font-family="Helvetica,sans-Serif" font-size="14.00">samples = 9</text>
<text text-anchor="start" x="405" y="-481.7" font-family="Helvetica,sans-Serif" font-size="14.00">value = [6, 3, 0]</text>
<text text-anchor="start" x="409.5" y="-466.7" font-family="Helvetica,sans-Serif" font-size="14.00">class = Adelie</text>
</g>
<!-- 3&#45;&gt;9 -->
<g id="edge9" class="edge">
<title>3&#45;&gt;9</title>
<path fill="none" stroke="black" d="M451.5,-579.58C451.5,-571.79 451.5,-563.53 451.5,-555.45"/>
<polygon fill="black" stroke="black" points="455,-555.71 451.5,-545.71 448,-555.71 455,-555.71"/>
</g>
<!-- 5 -->
<g id="node6" class="node">
<title>5</title>
<path fill="#e99355" stroke="black" d="M183.25,-425C183.25,-425 57.75,-425 57.75,-425 51.75,-425 45.75,-419 45.75,-413 45.75,-413 45.75,-354 45.75,-354 45.75,-348 51.75,-342 57.75,-342 57.75,-342 183.25,-342 183.25,-342 189.25,-342 195.25,-348 195.25,-354 195.25,-354 195.25,-413 195.25,-413 195.25,-419 189.25,-425 183.25,-425"/>
<text text-anchor="start" x="53.75" y="-407.7" font-family="Helvetica,sans-Serif" font-size="14.00">bill_length_mm ≤ 39.5</text>
<text text-anchor="start" x="85.25" y="-392.7" font-family="Helvetica,sans-Serif" font-size="14.00">gini = 0.219</text>
<text text-anchor="start" x="83.38" y="-377.7" font-family="Helvetica,sans-Serif" font-size="14.00">samples = 8</text>
<text text-anchor="start" x="74" y="-362.7" font-family="Helvetica,sans-Serif" font-size="14.00">value = [7, 1, 0]</text>
<text text-anchor="start" x="78.5" y="-347.7" font-family="Helvetica,sans-Serif" font-size="14.00">class = Adelie</text>
</g>
<!-- 4&#45;&gt;5 -->
<g id="edge5" class="edge">
<title>4&#45;&gt;5</title>
<path fill="none" stroke="black" d="M221.29,-460.58C209.14,-451.41 196.14,-441.6 183.66,-432.17"/>
<polygon fill="black" stroke="black" points="185.98,-429.54 175.89,-426.31 181.76,-435.13 185.98,-429.54"/>
</g>
<!-- 8 -->
<g id="node9" class="node">
<title>8</title>
<path fill="#e58139" stroke="black" d="M325.5,-417.5C325.5,-417.5 225.5,-417.5 225.5,-417.5 219.5,-417.5 213.5,-411.5 213.5,-405.5 213.5,-405.5 213.5,-361.5 213.5,-361.5 213.5,-355.5 219.5,-349.5 225.5,-349.5 225.5,-349.5 325.5,-349.5 325.5,-349.5 331.5,-349.5 337.5,-355.5 337.5,-361.5 337.5,-361.5 337.5,-405.5 337.5,-405.5 337.5,-411.5 331.5,-417.5 325.5,-417.5"/>
<text text-anchor="start" x="247.75" y="-400.2" font-family="Helvetica,sans-Serif" font-size="14.00">gini = 0.0</text>
<text text-anchor="start" x="230.88" y="-385.2" font-family="Helvetica,sans-Serif" font-size="14.00">samples = 104</text>
<text text-anchor="start" x="221.5" y="-370.2" font-family="Helvetica,sans-Serif" font-size="14.00">value = [104, 0, 0]</text>
<text text-anchor="start" x="233.5" y="-355.2" font-family="Helvetica,sans-Serif" font-size="14.00">class = Adelie</text>
</g>
<!-- 4&#45;&gt;8 -->
<g id="edge8" class="edge">
<title>4&#45;&gt;8</title>
<path fill="none" stroke="black" d="M275.5,-460.58C275.5,-450.43 275.5,-439.5 275.5,-429.18"/>
<polygon fill="black" stroke="black" points="279,-429.37 275.5,-419.37 272,-429.37 279,-429.37"/>
</g>
<!-- 6 -->
<g id="node7" class="node">
<title>6</title>
<path fill="#e58139" stroke="black" d="M97,-298.5C97,-298.5 12,-298.5 12,-298.5 6,-298.5 0,-292.5 0,-286.5 0,-286.5 0,-242.5 0,-242.5 0,-236.5 6,-230.5 12,-230.5 12,-230.5 97,-230.5 97,-230.5 103,-230.5 109,-236.5 109,-242.5 109,-242.5 109,-286.5 109,-286.5 109,-292.5 103,-298.5 97,-298.5"/>
<text text-anchor="start" x="26.75" y="-281.2" font-family="Helvetica,sans-Serif" font-size="14.00">gini = 0.0</text>
<text text-anchor="start" x="17.38" y="-266.2" font-family="Helvetica,sans-Serif" font-size="14.00">samples = 7</text>
<text text-anchor="start" x="8" y="-251.2" font-family="Helvetica,sans-Serif" font-size="14.00">value = [7, 0, 0]</text>
<text text-anchor="start" x="12.5" y="-236.2" font-family="Helvetica,sans-Serif" font-size="14.00">class = Adelie</text>
</g>
<!-- 5&#45;&gt;6 -->
<g id="edge6" class="edge">
<title>5&#45;&gt;6</title>
<path fill="none" stroke="black" d="M97.42,-341.58C91.44,-330.99 84.99,-319.56 78.96,-308.85"/>
<polygon fill="black" stroke="black" points="82.02,-307.17 74.06,-300.18 75.93,-310.61 82.02,-307.17"/>
</g>
<!-- 7 -->
<g id="node8" class="node">
<title>7</title>
<path fill="#39e581" stroke="black" d="M235.62,-298.5C235.62,-298.5 139.38,-298.5 139.38,-298.5 133.38,-298.5 127.38,-292.5 127.38,-286.5 127.38,-286.5 127.38,-242.5 127.38,-242.5 127.38,-236.5 133.38,-230.5 139.38,-230.5 139.38,-230.5 235.62,-230.5 235.62,-230.5 241.62,-230.5 247.62,-236.5 247.62,-242.5 247.62,-242.5 247.62,-286.5 247.62,-286.5 247.62,-292.5 241.62,-298.5 235.62,-298.5"/>
<text text-anchor="start" x="159.75" y="-281.2" font-family="Helvetica,sans-Serif" font-size="14.00">gini = 0.0</text>
<text text-anchor="start" x="150.38" y="-266.2" font-family="Helvetica,sans-Serif" font-size="14.00">samples = 1</text>
<text text-anchor="start" x="141" y="-251.2" font-family="Helvetica,sans-Serif" font-size="14.00">value = [0, 1, 0]</text>
<text text-anchor="start" x="135.38" y="-236.2" font-family="Helvetica,sans-Serif" font-size="14.00">class = Chinstrap</text>
</g>
<!-- 5&#45;&gt;7 -->
<g id="edge7" class="edge">
<title>5&#45;&gt;7</title>
<path fill="none" stroke="black" d="M143.93,-341.58C150,-330.99 156.54,-319.56 162.67,-308.85"/>
<polygon fill="black" stroke="black" points="165.71,-310.59 167.64,-300.17 159.64,-307.11 165.71,-310.59"/>
</g>
<!-- 10 -->
<g id="node11" class="node">
<title>10</title>
<path fill="#39e581" stroke="black" d="M463.62,-417.5C463.62,-417.5 367.38,-417.5 367.38,-417.5 361.38,-417.5 355.38,-411.5 355.38,-405.5 355.38,-405.5 355.38,-361.5 355.38,-361.5 355.38,-355.5 361.38,-349.5 367.38,-349.5 367.38,-349.5 463.62,-349.5 463.62,-349.5 469.62,-349.5 475.62,-355.5 475.62,-361.5 475.62,-361.5 475.62,-405.5 475.62,-405.5 475.62,-411.5 469.62,-417.5 463.62,-417.5"/>
<text text-anchor="start" x="387.75" y="-400.2" font-family="Helvetica,sans-Serif" font-size="14.00">gini = 0.0</text>
<text text-anchor="start" x="378.38" y="-385.2" font-family="Helvetica,sans-Serif" font-size="14.00">samples = 3</text>
<text text-anchor="start" x="369" y="-370.2" font-family="Helvetica,sans-Serif" font-size="14.00">value = [0, 3, 0]</text>
<text text-anchor="start" x="363.38" y="-355.2" font-family="Helvetica,sans-Serif" font-size="14.00">class = Chinstrap</text>
</g>
<!-- 9&#45;&gt;10 -->
<g id="edge10" class="edge">
<title>9&#45;&gt;10</title>
<path fill="none" stroke="black" d="M438.91,-460.58C435.75,-450.32 432.35,-439.27 429.15,-428.85"/>
<polygon fill="black" stroke="black" points="432.5,-427.84 426.21,-419.31 425.81,-429.89 432.5,-427.84"/>
</g>
<!-- 11 -->
<g id="node12" class="node">
<title>11</title>
<path fill="#e58139" stroke="black" d="M591,-417.5C591,-417.5 506,-417.5 506,-417.5 500,-417.5 494,-411.5 494,-405.5 494,-405.5 494,-361.5 494,-361.5 494,-355.5 500,-349.5 506,-349.5 506,-349.5 591,-349.5 591,-349.5 597,-349.5 603,-355.5 603,-361.5 603,-361.5 603,-405.5 603,-405.5 603,-411.5 597,-417.5 591,-417.5"/>
<text text-anchor="start" x="520.75" y="-400.2" font-family="Helvetica,sans-Serif" font-size="14.00">gini = 0.0</text>
<text text-anchor="start" x="511.38" y="-385.2" font-family="Helvetica,sans-Serif" font-size="14.00">samples = 6</text>
<text text-anchor="start" x="502" y="-370.2" font-family="Helvetica,sans-Serif" font-size="14.00">value = [6, 0, 0]</text>
<text text-anchor="start" x="506.5" y="-355.2" font-family="Helvetica,sans-Serif" font-size="14.00">class = Adelie</text>
</g>
<!-- 9&#45;&gt;11 -->
<g id="edge11" class="edge">
<title>9&#45;&gt;11</title>
<path fill="none" stroke="black" d="M485.43,-460.58C494.56,-449.56 504.47,-437.61 513.65,-426.53"/>
<polygon fill="black" stroke="black" points="516.19,-428.96 519.88,-419.03 510.8,-424.49 516.19,-428.96"/>
</g>
<!-- 13 -->
<g id="node14" class="node">
<title>13</title>
<path fill="#8139e5" stroke="black" d="M668.75,-655.5C668.75,-655.5 576.25,-655.5 576.25,-655.5 570.25,-655.5 564.25,-649.5 564.25,-643.5 564.25,-643.5 564.25,-599.5 564.25,-599.5 564.25,-593.5 570.25,-587.5 576.25,-587.5 576.25,-587.5 668.75,-587.5 668.75,-587.5 674.75,-587.5 680.75,-593.5 680.75,-599.5 680.75,-599.5 680.75,-643.5 680.75,-643.5 680.75,-649.5 674.75,-655.5 668.75,-655.5"/>
<text text-anchor="start" x="594.75" y="-638.2" font-family="Helvetica,sans-Serif" font-size="14.00">gini = 0.0</text>
<text text-anchor="start" x="581.62" y="-623.2" font-family="Helvetica,sans-Serif" font-size="14.00">samples = 90</text>
<text text-anchor="start" x="572.25" y="-608.2" font-family="Helvetica,sans-Serif" font-size="14.00">value = [0, 0, 90]</text>
<text text-anchor="start" x="576.75" y="-593.2" font-family="Helvetica,sans-Serif" font-size="14.00">class = Gentoo</text>
</g>
<!-- 12&#45;&gt;13 -->
<g id="edge13" class="edge">
<title>12&#45;&gt;13</title>
<path fill="none" stroke="black" d="M622.5,-698.58C622.5,-688.43 622.5,-677.5 622.5,-667.18"/>
<polygon fill="black" stroke="black" points="626,-667.37 622.5,-657.37 619,-667.37 626,-667.37"/>
</g>
<!-- 14 -->
<g id="node15" class="node">
<title>14</title>
<path fill="#5ae996" stroke="black" d="M840.75,-663C840.75,-663 718.25,-663 718.25,-663 712.25,-663 706.25,-657 706.25,-651 706.25,-651 706.25,-592 706.25,-592 706.25,-586 712.25,-580 718.25,-580 718.25,-580 840.75,-580 840.75,-580 846.75,-580 852.75,-586 852.75,-592 852.75,-592 852.75,-651 852.75,-651 852.75,-657 846.75,-663 840.75,-663"/>
<text text-anchor="start" x="714.25" y="-645.7" font-family="Helvetica,sans-Serif" font-size="14.00">bill_depth_mm ≤ 17.2</text>
<text text-anchor="start" x="748" y="-630.7" font-family="Helvetica,sans-Serif" font-size="14.00">gini = 0.27</text>
<text text-anchor="start" x="738.62" y="-615.7" font-family="Helvetica,sans-Serif" font-size="14.00">samples = 59</text>
<text text-anchor="start" x="729.25" y="-600.7" font-family="Helvetica,sans-Serif" font-size="14.00">value = [4, 50, 5]</text>
<text text-anchor="start" x="727.38" y="-585.7" font-family="Helvetica,sans-Serif" font-size="14.00">class = Chinstrap</text>
</g>
<!-- 12&#45;&gt;14 -->
<g id="edge14" class="edge">
<title>12&#45;&gt;14</title>
<path fill="none" stroke="black" d="M677.41,-698.58C689.72,-689.41 702.88,-679.6 715.53,-670.17"/>
<polygon fill="black" stroke="black" points="717.48,-673.08 723.41,-664.3 713.3,-667.47 717.48,-673.08"/>
</g>
<!-- 15 -->
<g id="node16" class="node">
<title>15</title>
<path fill="#ffffff" stroke="black" d="M846,-544C846,-544 713,-544 713,-544 707,-544 701,-538 701,-532 701,-532 701,-473 701,-473 701,-467 707,-461 713,-461 713,-461 846,-461 846,-461 852,-461 858,-467 858,-473 858,-473 858,-532 858,-532 858,-538 852,-544 846,-544"/>
<text text-anchor="start" x="709" y="-526.7" font-family="Helvetica,sans-Serif" font-size="14.00">bill_length_mm ≤ 48.35</text>
<text text-anchor="start" x="751.75" y="-511.7" font-family="Helvetica,sans-Serif" font-size="14.00">gini = 0.5</text>
<text text-anchor="start" x="738.62" y="-496.7" font-family="Helvetica,sans-Serif" font-size="14.00">samples = 10</text>
<text text-anchor="start" x="733" y="-481.7" font-family="Helvetica,sans-Serif" font-size="14.00">value = [0, 5, 5]</text>
<text text-anchor="start" x="727.38" y="-466.7" font-family="Helvetica,sans-Serif" font-size="14.00">class = Chinstrap</text>
</g>
<!-- 14&#45;&gt;15 -->
<g id="edge15" class="edge">
<title>14&#45;&gt;15</title>
<path fill="none" stroke="black" d="M779.5,-579.58C779.5,-571.79 779.5,-563.53 779.5,-555.45"/>
<polygon fill="black" stroke="black" points="783,-555.71 779.5,-545.71 776,-555.71 783,-555.71"/>
</g>
<!-- 18 -->
<g id="node19" class="node">
<title>18</title>
<path fill="#4be78c" stroke="black" d="M1027.62,-544C1027.62,-544 901.38,-544 901.38,-544 895.38,-544 889.38,-538 889.38,-532 889.38,-532 889.38,-473 889.38,-473 889.38,-467 895.38,-461 901.38,-461 901.38,-461 1027.62,-461 1027.62,-461 1033.62,-461 1039.62,-467 1039.62,-473 1039.62,-473 1039.62,-532 1039.62,-532 1039.62,-538 1033.62,-544 1027.62,-544"/>
<text text-anchor="start" x="897.75" y="-526.7" font-family="Helvetica,sans-Serif" font-size="14.00">bill_length_mm ≤ 46.2</text>
<text text-anchor="start" x="933" y="-511.7" font-family="Helvetica,sans-Serif" font-size="14.00">gini = 0.15</text>
<text text-anchor="start" x="923.62" y="-496.7" font-family="Helvetica,sans-Serif" font-size="14.00">samples = 49</text>
<text text-anchor="start" x="897.38" y="-481.7" font-family="Helvetica,sans-Serif" font-size="14.00">value = [4.0, 45.0, 0.0]</text>
<text text-anchor="start" x="912.38" y="-466.7" font-family="Helvetica,sans-Serif" font-size="14.00">class = Chinstrap</text>
</g>
<!-- 14&#45;&gt;18 -->
<g id="edge18" class="edge">
<title>14&#45;&gt;18</title>
<path fill="none" stroke="black" d="M844.2,-579.58C859.13,-570.14 875.12,-560.02 890.42,-550.35"/>
<polygon fill="black" stroke="black" points="891.97,-553.51 898.55,-545.21 888.23,-547.59 891.97,-553.51"/>
</g>
<!-- 16 -->
<g id="node17" class="node">
<title>16</title>
<path fill="#39e581" stroke="black" d="M729.62,-417.5C729.62,-417.5 633.38,-417.5 633.38,-417.5 627.38,-417.5 621.38,-411.5 621.38,-405.5 621.38,-405.5 621.38,-361.5 621.38,-361.5 621.38,-355.5 627.38,-349.5 633.38,-349.5 633.38,-349.5 729.62,-349.5 729.62,-349.5 735.62,-349.5 741.62,-355.5 741.62,-361.5 741.62,-361.5 741.62,-405.5 741.62,-405.5 741.62,-411.5 735.62,-417.5 729.62,-417.5"/>
<text text-anchor="start" x="653.75" y="-400.2" font-family="Helvetica,sans-Serif" font-size="14.00">gini = 0.0</text>
<text text-anchor="start" x="644.38" y="-385.2" font-family="Helvetica,sans-Serif" font-size="14.00">samples = 5</text>
<text text-anchor="start" x="635" y="-370.2" font-family="Helvetica,sans-Serif" font-size="14.00">value = [0, 5, 0]</text>
<text text-anchor="start" x="629.38" y="-355.2" font-family="Helvetica,sans-Serif" font-size="14.00">class = Chinstrap</text>
</g>
<!-- 15&#45;&gt;16 -->
<g id="edge16" class="edge">
<title>15&#45;&gt;16</title>
<path fill="none" stroke="black" d="M745.22,-460.58C735.99,-449.56 725.99,-437.61 716.71,-426.53"/>
<polygon fill="black" stroke="black" points="719.52,-424.44 710.42,-419.02 714.15,-428.93 719.52,-424.44"/>
</g>
<!-- 17 -->
<g id="node18" class="node">
<title>17</title>
<path fill="#8139e5" stroke="black" d="M857,-417.5C857,-417.5 772,-417.5 772,-417.5 766,-417.5 760,-411.5 760,-405.5 760,-405.5 760,-361.5 760,-361.5 760,-355.5 766,-349.5 772,-349.5 772,-349.5 857,-349.5 857,-349.5 863,-349.5 869,-355.5 869,-361.5 869,-361.5 869,-405.5 869,-405.5 869,-411.5 863,-417.5 857,-417.5"/>
<text text-anchor="start" x="786.75" y="-400.2" font-family="Helvetica,sans-Serif" font-size="14.00">gini = 0.0</text>
<text text-anchor="start" x="777.38" y="-385.2" font-family="Helvetica,sans-Serif" font-size="14.00">samples = 5</text>
<text text-anchor="start" x="768" y="-370.2" font-family="Helvetica,sans-Serif" font-size="14.00">value = [0, 0, 5]</text>
<text text-anchor="start" x="768.75" y="-355.2" font-family="Helvetica,sans-Serif" font-size="14.00">class = Gentoo</text>
</g>
<!-- 15&#45;&gt;17 -->
<g id="edge17" class="edge">
<title>15&#45;&gt;17</title>
<path fill="none" stroke="black" d="M791.74,-460.58C794.81,-450.32 798.12,-439.27 801.23,-428.85"/>
<polygon fill="black" stroke="black" points="804.57,-429.89 804.09,-419.31 797.87,-427.89 804.57,-429.89"/>
</g>
<!-- 19 -->
<g id="node20" class="node">
<title>19</title>
<path fill="#bdf6d5" stroke="black" d="M1029.5,-425C1029.5,-425 899.5,-425 899.5,-425 893.5,-425 887.5,-419 887.5,-413 887.5,-413 887.5,-354 887.5,-354 887.5,-348 893.5,-342 899.5,-342 899.5,-342 1029.5,-342 1029.5,-342 1035.5,-342 1041.5,-348 1041.5,-354 1041.5,-354 1041.5,-413 1041.5,-413 1041.5,-419 1035.5,-425 1029.5,-425"/>
<text text-anchor="start" x="895.5" y="-407.7" font-family="Helvetica,sans-Serif" font-size="14.00">bill_depth_mm ≤ 19.55</text>
<text text-anchor="start" x="933" y="-392.7" font-family="Helvetica,sans-Serif" font-size="14.00">gini = 0.48</text>
<text text-anchor="start" x="923.62" y="-377.7" font-family="Helvetica,sans-Serif" font-size="14.00">samples = 10</text>
<text text-anchor="start" x="918" y="-362.7" font-family="Helvetica,sans-Serif" font-size="14.00">value = [4, 6, 0]</text>
<text text-anchor="start" x="912.38" y="-347.7" font-family="Helvetica,sans-Serif" font-size="14.00">class = Chinstrap</text>
</g>
<!-- 18&#45;&gt;19 -->
<g id="edge19" class="edge">
<title>18&#45;&gt;19</title>
<path fill="none" stroke="black" d="M964.5,-460.58C964.5,-452.79 964.5,-444.53 964.5,-436.45"/>
<polygon fill="black" stroke="black" points="968,-436.71 964.5,-426.71 961,-436.71 968,-436.71"/>
</g>
<!-- 26 -->
<g id="node27" class="node">
<title>26</title>
<path fill="#39e581" stroke="black" d="M1167.62,-417.5C1167.62,-417.5 1071.38,-417.5 1071.38,-417.5 1065.38,-417.5 1059.38,-411.5 1059.38,-405.5 1059.38,-405.5 1059.38,-361.5 1059.38,-361.5 1059.38,-355.5 1065.38,-349.5 1071.38,-349.5 1071.38,-349.5 1167.62,-349.5 1167.62,-349.5 1173.62,-349.5 1179.62,-355.5 1179.62,-361.5 1179.62,-361.5 1179.62,-405.5 1179.62,-405.5 1179.62,-411.5 1173.62,-417.5 1167.62,-417.5"/>
<text text-anchor="start" x="1091.75" y="-400.2" font-family="Helvetica,sans-Serif" font-size="14.00">gini = 0.0</text>
<text text-anchor="start" x="1078.62" y="-385.2" font-family="Helvetica,sans-Serif" font-size="14.00">samples = 39</text>
<text text-anchor="start" x="1069.25" y="-370.2" font-family="Helvetica,sans-Serif" font-size="14.00">value = [0, 39, 0]</text>
<text text-anchor="start" x="1067.38" y="-355.2" font-family="Helvetica,sans-Serif" font-size="14.00">class = Chinstrap</text>
</g>
<!-- 18&#45;&gt;26 -->
<g id="edge26" class="edge">
<title>18&#45;&gt;26</title>
<path fill="none" stroke="black" d="M1018.71,-460.58C1034.18,-448.9 1051.02,-436.19 1066.42,-424.57"/>
<polygon fill="black" stroke="black" points="1068.22,-427.59 1074.1,-418.77 1064.01,-422 1068.22,-427.59"/>
</g>
<!-- 20 -->
<g id="node21" class="node">
<title>20</title>
<path fill="#5ae996" stroke="black" d="M955,-306C955,-306 822,-306 822,-306 816,-306 810,-300 810,-294 810,-294 810,-235 810,-235 810,-229 816,-223 822,-223 822,-223 955,-223 955,-223 961,-223 967,-229 967,-235 967,-235 967,-294 967,-294 967,-300 961,-306 955,-306"/>
<text text-anchor="start" x="818" y="-288.7" font-family="Helvetica,sans-Serif" font-size="14.00">bill_length_mm ≤ 45.75</text>
<text text-anchor="start" x="853.25" y="-273.7" font-family="Helvetica,sans-Serif" font-size="14.00">gini = 0.245</text>
<text text-anchor="start" x="851.38" y="-258.7" font-family="Helvetica,sans-Serif" font-size="14.00">samples = 7</text>
<text text-anchor="start" x="842" y="-243.7" font-family="Helvetica,sans-Serif" font-size="14.00">value = [1, 6, 0]</text>
<text text-anchor="start" x="836.38" y="-228.7" font-family="Helvetica,sans-Serif" font-size="14.00">class = Chinstrap</text>
</g>
<!-- 19&#45;&gt;20 -->
<g id="edge20" class="edge">
<title>19&#45;&gt;20</title>
<path fill="none" stroke="black" d="M937.92,-341.58C932.51,-333.25 926.76,-324.39 921.16,-315.78"/>
<polygon fill="black" stroke="black" points="924.14,-313.95 915.76,-307.47 918.27,-317.76 924.14,-313.95"/>
</g>
<!-- 25 -->
<g id="node26" class="node">
<title>25</title>
<path fill="#e58139" stroke="black" d="M1082,-298.5C1082,-298.5 997,-298.5 997,-298.5 991,-298.5 985,-292.5 985,-286.5 985,-286.5 985,-242.5 985,-242.5 985,-236.5 991,-230.5 997,-230.5 997,-230.5 1082,-230.5 1082,-230.5 1088,-230.5 1094,-236.5 1094,-242.5 1094,-242.5 1094,-286.5 1094,-286.5 1094,-292.5 1088,-298.5 1082,-298.5"/>
<text text-anchor="start" x="1011.75" y="-281.2" font-family="Helvetica,sans-Serif" font-size="14.00">gini = 0.0</text>
<text text-anchor="start" x="1002.38" y="-266.2" font-family="Helvetica,sans-Serif" font-size="14.00">samples = 3</text>
<text text-anchor="start" x="993" y="-251.2" font-family="Helvetica,sans-Serif" font-size="14.00">value = [3, 0, 0]</text>
<text text-anchor="start" x="997.5" y="-236.2" font-family="Helvetica,sans-Serif" font-size="14.00">class = Adelie</text>
</g>
<!-- 19&#45;&gt;25 -->
<g id="edge25" class="edge">
<title>19&#45;&gt;25</title>
<path fill="none" stroke="black" d="M990.73,-341.58C997.59,-330.88 1005,-319.32 1011.92,-308.52"/>
<polygon fill="black" stroke="black" points="1014.85,-310.44 1017.3,-300.14 1008.95,-306.67 1014.85,-310.44"/>
</g>
<!-- 21 -->
<g id="node22" class="node">
<title>21</title>
<path fill="#39e581" stroke="black" d="M859.62,-179.5C859.62,-179.5 763.38,-179.5 763.38,-179.5 757.38,-179.5 751.38,-173.5 751.38,-167.5 751.38,-167.5 751.38,-123.5 751.38,-123.5 751.38,-117.5 757.38,-111.5 763.38,-111.5 763.38,-111.5 859.62,-111.5 859.62,-111.5 865.62,-111.5 871.62,-117.5 871.62,-123.5 871.62,-123.5 871.62,-167.5 871.62,-167.5 871.62,-173.5 865.62,-179.5 859.62,-179.5"/>
<text text-anchor="start" x="783.75" y="-162.2" font-family="Helvetica,sans-Serif" font-size="14.00">gini = 0.0</text>
<text text-anchor="start" x="774.38" y="-147.2" font-family="Helvetica,sans-Serif" font-size="14.00">samples = 5</text>
<text text-anchor="start" x="765" y="-132.2" font-family="Helvetica,sans-Serif" font-size="14.00">value = [0, 5, 0]</text>
<text text-anchor="start" x="759.38" y="-117.2" font-family="Helvetica,sans-Serif" font-size="14.00">class = Chinstrap</text>
</g>
<!-- 20&#45;&gt;21 -->
<g id="edge21" class="edge">
<title>20&#45;&gt;21</title>
<path fill="none" stroke="black" d="M861.57,-222.58C854.46,-211.77 846.77,-200.09 839.6,-189.19"/>
<polygon fill="black" stroke="black" points="842.71,-187.55 834.29,-181.13 836.86,-191.4 842.71,-187.55"/>
</g>
<!-- 22 -->
<g id="node23" class="node">
<title>22</title>
<path fill="#ffffff" stroke="black" d="M1027.25,-187C1027.25,-187 901.75,-187 901.75,-187 895.75,-187 889.75,-181 889.75,-175 889.75,-175 889.75,-116 889.75,-116 889.75,-110 895.75,-104 901.75,-104 901.75,-104 1027.25,-104 1027.25,-104 1033.25,-104 1039.25,-110 1039.25,-116 1039.25,-116 1039.25,-175 1039.25,-175 1039.25,-181 1033.25,-187 1027.25,-187"/>
<text text-anchor="start" x="897.75" y="-169.7" font-family="Helvetica,sans-Serif" font-size="14.00">bill_length_mm ≤ 45.9</text>
<text text-anchor="start" x="936.75" y="-154.7" font-family="Helvetica,sans-Serif" font-size="14.00">gini = 0.5</text>
<text text-anchor="start" x="927.38" y="-139.7" font-family="Helvetica,sans-Serif" font-size="14.00">samples = 2</text>
<text text-anchor="start" x="918" y="-124.7" font-family="Helvetica,sans-Serif" font-size="14.00">value = [1, 1, 0]</text>
<text text-anchor="start" x="922.5" y="-109.7" font-family="Helvetica,sans-Serif" font-size="14.00">class = Adelie</text>
</g>
<!-- 20&#45;&gt;22 -->
<g id="edge22" class="edge">
<title>20&#45;&gt;22</title>
<path fill="none" stroke="black" d="M915.08,-222.58C920.49,-214.25 926.24,-205.39 931.84,-196.78"/>
<polygon fill="black" stroke="black" points="934.73,-198.76 937.24,-188.47 928.86,-194.95 934.73,-198.76"/>
</g>
<!-- 23 -->
<g id="node24" class="node">
<title>23</title>
<path fill="#e58139" stroke="black" d="M940,-68C940,-68 855,-68 855,-68 849,-68 843,-62 843,-56 843,-56 843,-12 843,-12 843,-6 849,0 855,0 855,0 940,0 940,0 946,0 952,-6 952,-12 952,-12 952,-56 952,-56 952,-62 946,-68 940,-68"/>
<text text-anchor="start" x="869.75" y="-50.7" font-family="Helvetica,sans-Serif" font-size="14.00">gini = 0.0</text>
<text text-anchor="start" x="860.38" y="-35.7" font-family="Helvetica,sans-Serif" font-size="14.00">samples = 1</text>
<text text-anchor="start" x="851" y="-20.7" font-family="Helvetica,sans-Serif" font-size="14.00">value = [1, 0, 0]</text>
<text text-anchor="start" x="855.5" y="-5.7" font-family="Helvetica,sans-Serif" font-size="14.00">class = Adelie</text>
</g>
<!-- 22&#45;&gt;23 -->
<g id="edge23" class="edge">
<title>22&#45;&gt;23</title>
<path fill="none" stroke="black" d="M939.55,-103.73C934.42,-95.34 929,-86.47 923.81,-78.01"/>
<polygon fill="black" stroke="black" points="926.87,-76.29 918.67,-69.59 920.9,-79.95 926.87,-76.29"/>
</g>
<!-- 24 -->
<g id="node25" class="node">
<title>24</title>
<path fill="#39e581" stroke="black" d="M1078.62,-68C1078.62,-68 982.38,-68 982.38,-68 976.38,-68 970.38,-62 970.38,-56 970.38,-56 970.38,-12 970.38,-12 970.38,-6 976.38,0 982.38,0 982.38,0 1078.62,0 1078.62,0 1084.62,0 1090.62,-6 1090.62,-12 1090.62,-12 1090.62,-56 1090.62,-56 1090.62,-62 1084.62,-68 1078.62,-68"/>
<text text-anchor="start" x="1002.75" y="-50.7" font-family="Helvetica,sans-Serif" font-size="14.00">gini = 0.0</text>
<text text-anchor="start" x="993.38" y="-35.7" font-family="Helvetica,sans-Serif" font-size="14.00">samples = 1</text>
<text text-anchor="start" x="984" y="-20.7" font-family="Helvetica,sans-Serif" font-size="14.00">value = [0, 1, 0]</text>
<text text-anchor="start" x="978.38" y="-5.7" font-family="Helvetica,sans-Serif" font-size="14.00">class = Chinstrap</text>
</g>
<!-- 22&#45;&gt;24 -->
<g id="edge24" class="edge">
<title>22&#45;&gt;24</title>
<path fill="none" stroke="black" d="M989.08,-103.73C994.13,-95.34 999.47,-86.47 1004.58,-78.01"/>
<polygon fill="black" stroke="black" points="1007.48,-79.97 1009.65,-69.6 1001.49,-76.35 1007.48,-79.97"/>
</g>
</g>
</svg>
