<?xml version="1.0" encoding="UTF-8" standalone="no"?>
<!DOCTYPE svg PUBLIC "-//W3C//DTD SVG 1.1//EN"
 "http://www.w3.org/Graphics/SVG/1.1/DTD/svg11.dtd">
<!-- Generated by graphviz version 12.2.1 (0)
 -->
<!-- Title: Tree Pages: 1 -->
<svg width="1330pt" height="909pt"
 viewBox="0.00 0.00 1329.62 909.00" xmlns="http://www.w3.org/2000/svg" xmlns:xlink="http://www.w3.org/1999/xlink">
<g id="graph0" class="graph" transform="scale(1 1) rotate(0) translate(4 905)">
<title>Tree</title>
<polygon fill="white" stroke="none" points="-4,4 -4,-905 1325.62,-905 1325.62,4 -4,4"/>
<!-- 0 -->
<g id="node1" class="node">
<title>0</title>
<path fill="#fceee5" stroke="black" d="M966.12,-901C966.12,-901 812.88,-901 812.88,-901 806.88,-901 800.88,-895 800.88,-889 800.88,-889 800.88,-830 800.88,-830 800.88,-824 806.88,-818 812.88,-818 812.88,-818 966.12,-818 966.12,-818 972.12,-818 978.12,-824 978.12,-830 978.12,-830 978.12,-889 978.12,-889 978.12,-895 972.12,-901 966.12,-901"/>
<text text-anchor="start" x="808.88" y="-883.7" font-family="Helvetica,sans-Serif" font-size="14.00">flipper_length_mm ≤ 206.5</text>
<text text-anchor="start" x="854.25" y="-868.7" font-family="Helvetica,sans-Serif" font-size="14.00">gini = 0.636</text>
<text text-anchor="start" x="844.88" y="-853.7" font-family="Helvetica,sans-Serif" font-size="14.00">samples = 273</text>
<text text-anchor="start" x="828" y="-838.7" font-family="Helvetica,sans-Serif" font-size="14.00">value = [121, 54, 98]</text>
<text text-anchor="start" x="847.5" y="-823.7" font-family="Helvetica,sans-Serif" font-size="14.00">class = Adelie</text>
</g>
<!-- 1 -->
<g id="node2" class="node">
<title>1</title>
<path fill="#f0b58b" stroke="black" d="M872.12,-782C872.12,-782 730.88,-782 730.88,-782 724.88,-782 718.88,-776 718.88,-770 718.88,-770 718.88,-711 718.88,-711 718.88,-705 724.88,-699 730.88,-699 730.88,-699 872.12,-699 872.12,-699 878.12,-699 884.12,-705 884.12,-711 884.12,-711 884.12,-770 884.12,-770 884.12,-776 878.12,-782 872.12,-782"/>
<text text-anchor="start" x="731" y="-764.7" font-family="Helvetica,sans-Serif" font-size="14.00">bill_length_mm ≤ 43.35</text>
<text text-anchor="start" x="766.25" y="-749.7" font-family="Helvetica,sans-Serif" font-size="14.00">gini = 0.419</text>
<text text-anchor="start" x="756.88" y="-734.7" font-family="Helvetica,sans-Serif" font-size="14.00">samples = 170</text>
<text text-anchor="start" x="726.88" y="-719.7" font-family="Helvetica,sans-Serif" font-size="14.00">value = [120.0, 49.0, 1.0]</text>
<text text-anchor="start" x="759.5" y="-704.7" font-family="Helvetica,sans-Serif" font-size="14.00">class = Adelie</text>
</g>
<!-- 0&#45;&gt;1 -->
<g id="edge1" class="edge">
<title>0&#45;&gt;1</title>
<path fill="none" stroke="black" d="M858.72,-817.58C852.32,-809.07 845.51,-800.01 838.9,-791.23"/>
<polygon fill="black" stroke="black" points="841.83,-789.3 833.02,-783.41 836.24,-793.51 841.83,-789.3"/>
<text text-anchor="middle" x="828.61" y="-801.15" font-family="Helvetica,sans-Serif" font-size="14.00">True</text>
</g>
<!-- 26 -->
<g id="node27" class="node">
<title>26</title>
<path fill="#8945e7" stroke="black" d="M1040.62,-782C1040.62,-782 914.38,-782 914.38,-782 908.38,-782 902.38,-776 902.38,-770 902.38,-770 902.38,-711 902.38,-711 902.38,-705 908.38,-699 914.38,-699 914.38,-699 1040.62,-699 1040.62,-699 1046.62,-699 1052.62,-705 1052.62,-711 1052.62,-711 1052.62,-770 1052.62,-770 1052.62,-776 1046.62,-782 1040.62,-782"/>
<text text-anchor="start" x="912.25" y="-764.7" font-family="Helvetica,sans-Serif" font-size="14.00">bill_depth_mm ≤ 18.0</text>
<text text-anchor="start" x="942.62" y="-749.7" font-family="Helvetica,sans-Serif" font-size="14.00">gini = 0.111</text>
<text text-anchor="start" x="932.88" y="-734.7" font-family="Helvetica,sans-Serif" font-size="14.00">samples = 103</text>
<text text-anchor="start" x="910.38" y="-719.7" font-family="Helvetica,sans-Serif" font-size="14.00">value = [1.0, 5.0, 97.0]</text>
<text text-anchor="start" x="931.75" y="-704.7" font-family="Helvetica,sans-Serif" font-size="14.00">class = Gentoo</text>
</g>
<!-- 0&#45;&gt;26 -->
<g id="edge26" class="edge">
<title>0&#45;&gt;26</title>
<path fill="none" stroke="black" d="M920.28,-817.58C926.68,-809.07 933.49,-800.01 940.1,-791.23"/>
<polygon fill="black" stroke="black" points="942.76,-793.51 945.98,-783.41 937.17,-789.3 942.76,-793.51"/>
<text text-anchor="middle" x="950.39" y="-801.15" font-family="Helvetica,sans-Serif" font-size="14.00">False</text>
</g>
<!-- 2 -->
<g id="node3" class="node">
<title>2</title>
<path fill="#e68540" stroke="black" d="M571,-663C571,-663 438,-663 438,-663 432,-663 426,-657 426,-651 426,-651 426,-592 426,-592 426,-586 432,-580 438,-580 438,-580 571,-580 571,-580 577,-580 583,-586 583,-592 583,-592 583,-651 583,-651 583,-657 577,-663 571,-663"/>
<text text-anchor="start" x="434" y="-645.7" font-family="Helvetica,sans-Serif" font-size="14.00">bill_length_mm ≤ 42.35</text>
<text text-anchor="start" x="469.25" y="-630.7" font-family="Helvetica,sans-Serif" font-size="14.00">gini = 0.064</text>
<text text-anchor="start" x="459.88" y="-615.7" font-family="Helvetica,sans-Serif" font-size="14.00">samples = 120</text>
<text text-anchor="start" x="450.5" y="-600.7" font-family="Helvetica,sans-Serif" font-size="14.00">value = [116, 4, 0]</text>
<text text-anchor="start" x="462.5" y="-585.7" font-family="Helvetica,sans-Serif" font-size="14.00">class = Adelie</text>
</g>
<!-- 1&#45;&gt;2 -->
<g id="edge2" class="edge">
<title>1&#45;&gt;2</title>
<path fill="none" stroke="black" d="M718.77,-706.91C680.01,-691.64 633.77,-673.42 594.18,-657.83"/>
<polygon fill="black" stroke="black" points="595.46,-654.57 584.87,-654.16 592.89,-661.08 595.46,-654.57"/>
</g>
<!-- 11 -->
<g id="node12" class="node">
<title>11</title>
<path fill="#4fe88f" stroke="black" d="M867.5,-663C867.5,-663 737.5,-663 737.5,-663 731.5,-663 725.5,-657 725.5,-651 725.5,-651 725.5,-592 725.5,-592 725.5,-586 731.5,-580 737.5,-580 737.5,-580 867.5,-580 867.5,-580 873.5,-580 879.5,-586 879.5,-592 879.5,-592 879.5,-651 879.5,-651 879.5,-657 873.5,-663 867.5,-663"/>
<text text-anchor="start" x="733.5" y="-645.7" font-family="Helvetica,sans-Serif" font-size="14.00">bill_depth_mm ≤ 20.15</text>
<text text-anchor="start" x="767.25" y="-630.7" font-family="Helvetica,sans-Serif" font-size="14.00">gini = 0.183</text>
<text text-anchor="start" x="761.62" y="-615.7" font-family="Helvetica,sans-Serif" font-size="14.00">samples = 50</text>
<text text-anchor="start" x="752.25" y="-600.7" font-family="Helvetica,sans-Serif" font-size="14.00">value = [4, 45, 1]</text>
<text text-anchor="start" x="750.38" y="-585.7" font-family="Helvetica,sans-Serif" font-size="14.00">class = Chinstrap</text>
</g>
<!-- 1&#45;&gt;11 -->
<g id="edge11" class="edge">
<title>1&#45;&gt;11</title>
<path fill="none" stroke="black" d="M801.85,-698.58C801.92,-690.79 801.99,-682.53 802.06,-674.45"/>
<polygon fill="black" stroke="black" points="805.55,-674.74 802.14,-664.71 798.55,-674.68 805.55,-674.74"/>
</g>
<!-- 3 -->
<g id="node4" class="node">
<title>3</title>
<path fill="#e5823b" stroke="black" d="M340.5,-544C340.5,-544 210.5,-544 210.5,-544 204.5,-544 198.5,-538 198.5,-532 198.5,-532 198.5,-473 198.5,-473 198.5,-467 204.5,-461 210.5,-461 210.5,-461 340.5,-461 340.5,-461 346.5,-461 352.5,-467 352.5,-473 352.5,-473 352.5,-532 352.5,-532 352.5,-538 346.5,-544 340.5,-544"/>
<text text-anchor="start" x="206.5" y="-526.7" font-family="Helvetica,sans-Serif" font-size="14.00">bill_depth_mm ≤ 16.65</text>
<text text-anchor="start" x="240.25" y="-511.7" font-family="Helvetica,sans-Serif" font-size="14.00">gini = 0.018</text>
<text text-anchor="start" x="231.25" y="-496.7" font-family="Helvetica,sans-Serif" font-size="14.00">samples = 111</text>
<text text-anchor="start" x="221.5" y="-481.7" font-family="Helvetica,sans-Serif" font-size="14.00">value = [110, 1, 0]</text>
<text text-anchor="start" x="233.5" y="-466.7" font-family="Helvetica,sans-Serif" font-size="14.00">class = Adelie</text>
</g>
<!-- 2&#45;&gt;3 -->
<g id="edge3" class="edge">
<title>2&#45;&gt;3</title>
<path fill="none" stroke="black" d="M425.69,-580.24C405.46,-569.9 383.57,-558.71 362.93,-548.17"/>
<polygon fill="black" stroke="black" points="364.75,-545.17 354.25,-543.74 361.56,-551.4 364.75,-545.17"/>
</g>
<!-- 8 -->
<g id="node9" class="node">
<title>8</title>
<path fill="#f2c09c" stroke="black" d="M581.12,-544C581.12,-544 427.88,-544 427.88,-544 421.88,-544 415.88,-538 415.88,-532 415.88,-532 415.88,-473 415.88,-473 415.88,-467 421.88,-461 427.88,-461 427.88,-461 581.12,-461 581.12,-461 587.12,-461 593.12,-467 593.12,-473 593.12,-473 593.12,-532 593.12,-532 593.12,-538 587.12,-544 581.12,-544"/>
<text text-anchor="start" x="423.88" y="-526.7" font-family="Helvetica,sans-Serif" font-size="14.00">flipper_length_mm ≤ 191.0</text>
<text text-anchor="start" x="469.25" y="-511.7" font-family="Helvetica,sans-Serif" font-size="14.00">gini = 0.444</text>
<text text-anchor="start" x="467.38" y="-496.7" font-family="Helvetica,sans-Serif" font-size="14.00">samples = 9</text>
<text text-anchor="start" x="458" y="-481.7" font-family="Helvetica,sans-Serif" font-size="14.00">value = [6, 3, 0]</text>
<text text-anchor="start" x="462.5" y="-466.7" font-family="Helvetica,sans-Serif" font-size="14.00">class = Adelie</text>
</g>
<!-- 2&#45;&gt;8 -->
<g id="edge8" class="edge">
<title>2&#45;&gt;8</title>
<path fill="none" stroke="black" d="M504.5,-579.58C504.5,-571.79 504.5,-563.53 504.5,-555.45"/>
<polygon fill="black" stroke="black" points="508,-555.71 504.5,-545.71 501,-555.71 508,-555.71"/>
</g>
<!-- 4 -->
<g id="node5" class="node">
<title>4</title>
<path fill="#e99355" stroke="black" d="M183.25,-425C183.25,-425 57.75,-425 57.75,-425 51.75,-425 45.75,-419 45.75,-413 45.75,-413 45.75,-354 45.75,-354 45.75,-348 51.75,-342 57.75,-342 57.75,-342 183.25,-342 183.25,-342 189.25,-342 195.25,-348 195.25,-354 195.25,-354 195.25,-413 195.25,-413 195.25,-419 189.25,-425 183.25,-425"/>
<text text-anchor="start" x="53.75" y="-407.7" font-family="Helvetica,sans-Serif" font-size="14.00">bill_length_mm ≤ 39.5</text>
<text text-anchor="start" x="85.25" y="-392.7" font-family="Helvetica,sans-Serif" font-size="14.00">gini = 0.219</text>
<text text-anchor="start" x="83.38" y="-377.7" font-family="Helvetica,sans-Serif" font-size="14.00">samples = 8</text>
<text text-anchor="start" x="74" y="-362.7" font-family="Helvetica,sans-Serif" font-size="14.00">value = [7, 1, 0]</text>
<text text-anchor="start" x="78.5" y="-347.7" font-family="Helvetica,sans-Serif" font-size="14.00">class = Adelie</text>
</g>
<!-- 3&#45;&gt;4 -->
<g id="edge4" class="edge">
<title>3&#45;&gt;4</title>
<path fill="none" stroke="black" d="M221.29,-460.58C209.14,-451.41 196.14,-441.6 183.66,-432.17"/>
<polygon fill="black" stroke="black" points="185.98,-429.54 175.89,-426.31 181.76,-435.13 185.98,-429.54"/>
</g>
<!-- 7 -->
<g id="node8" class="node">
<title>7</title>
<path fill="#e58139" stroke="black" d="M325.5,-417.5C325.5,-417.5 225.5,-417.5 225.5,-417.5 219.5,-417.5 213.5,-411.5 213.5,-405.5 213.5,-405.5 213.5,-361.5 213.5,-361.5 213.5,-355.5 219.5,-349.5 225.5,-349.5 225.5,-349.5 325.5,-349.5 325.5,-349.5 331.5,-349.5 337.5,-355.5 337.5,-361.5 337.5,-361.5 337.5,-405.5 337.5,-405.5 337.5,-411.5 331.5,-417.5 325.5,-417.5"/>
<text text-anchor="start" x="247.75" y="-400.2" font-family="Helvetica,sans-Serif" font-size="14.00">gini = 0.0</text>
<text text-anchor="start" x="230.88" y="-385.2" font-family="Helvetica,sans-Serif" font-size="14.00">samples = 103</text>
<text text-anchor="start" x="221.5" y="-370.2" font-family="Helvetica,sans-Serif" font-size="14.00">value = [103, 0, 0]</text>
<text text-anchor="start" x="233.5" y="-355.2" font-family="Helvetica,sans-Serif" font-size="14.00">class = Adelie</text>
</g>
<!-- 3&#45;&gt;7 -->
<g id="edge7" class="edge">
<title>3&#45;&gt;7</title>
<path fill="none" stroke="black" d="M275.5,-460.58C275.5,-450.43 275.5,-439.5 275.5,-429.18"/>
<polygon fill="black" stroke="black" points="279,-429.37 275.5,-419.37 272,-429.37 279,-429.37"/>
</g>
<!-- 5 -->
<g id="node6" class="node">
<title>5</title>
<path fill="#e58139" stroke="black" d="M97,-298.5C97,-298.5 12,-298.5 12,-298.5 6,-298.5 0,-292.5 0,-286.5 0,-286.5 0,-242.5 0,-242.5 0,-236.5 6,-230.5 12,-230.5 12,-230.5 97,-230.5 97,-230.5 103,-230.5 109,-236.5 109,-242.5 109,-242.5 109,-286.5 109,-286.5 109,-292.5 103,-298.5 97,-298.5"/>
<text text-anchor="start" x="26.75" y="-281.2" font-family="Helvetica,sans-Serif" font-size="14.00">gini = 0.0</text>
<text text-anchor="start" x="17.38" y="-266.2" font-family="Helvetica,sans-Serif" font-size="14.00">samples = 7</text>
<text text-anchor="start" x="8" y="-251.2" font-family="Helvetica,sans-Serif" font-size="14.00">value = [7, 0, 0]</text>
<text text-anchor="start" x="12.5" y="-236.2" font-family="Helvetica,sans-Serif" font-size="14.00">class = Adelie</text>
</g>
<!-- 4&#45;&gt;5 -->
<g id="edge5" class="edge">
<title>4&#45;&gt;5</title>
<path fill="none" stroke="black" d="M97.42,-341.58C91.44,-330.99 84.99,-319.56 78.96,-308.85"/>
<polygon fill="black" stroke="black" points="82.02,-307.17 74.06,-300.18 75.93,-310.61 82.02,-307.17"/>
</g>
<!-- 6 -->
<g id="node7" class="node">
<title>6</title>
<path fill="#39e581" stroke="black" d="M235.62,-298.5C235.62,-298.5 139.38,-298.5 139.38,-298.5 133.38,-298.5 127.38,-292.5 127.38,-286.5 127.38,-286.5 127.38,-242.5 127.38,-242.5 127.38,-236.5 133.38,-230.5 139.38,-230.5 139.38,-230.5 235.62,-230.5 235.62,-230.5 241.62,-230.5 247.62,-236.5 247.62,-242.5 247.62,-242.5 247.62,-286.5 247.62,-286.5 247.62,-292.5 241.62,-298.5 235.62,-298.5"/>
<text text-anchor="start" x="159.75" y="-281.2" font-family="Helvetica,sans-Serif" font-size="14.00">gini = 0.0</text>
<text text-anchor="start" x="150.38" y="-266.2" font-family="Helvetica,sans-Serif" font-size="14.00">samples = 1</text>
<text text-anchor="start" x="141" y="-251.2" font-family="Helvetica,sans-Serif" font-size="14.00">value = [0, 1, 0]</text>
<text text-anchor="start" x="135.38" y="-236.2" font-family="Helvetica,sans-Serif" font-size="14.00">class = Chinstrap</text>
</g>
<!-- 4&#45;&gt;6 -->
<g id="edge6" class="edge">
<title>4&#45;&gt;6</title>
<path fill="none" stroke="black" d="M143.93,-341.58C150,-330.99 156.54,-319.56 162.67,-308.85"/>
<polygon fill="black" stroke="black" points="165.71,-310.59 167.64,-300.17 159.64,-307.11 165.71,-310.59"/>
</g>
<!-- 9 -->
<g id="node10" class="node">
<title>9</title>
<path fill="#39e581" stroke="black" d="M463.62,-417.5C463.62,-417.5 367.38,-417.5 367.38,-417.5 361.38,-417.5 355.38,-411.5 355.38,-405.5 355.38,-405.5 355.38,-361.5 355.38,-361.5 355.38,-355.5 361.38,-349.5 367.38,-349.5 367.38,-349.5 463.62,-349.5 463.62,-349.5 469.62,-349.5 475.62,-355.5 475.62,-361.5 475.62,-361.5 475.62,-405.5 475.62,-405.5 475.62,-411.5 469.62,-417.5 463.62,-417.5"/>
<text text-anchor="start" x="387.75" y="-400.2" font-family="Helvetica,sans-Serif" font-size="14.00">gini = 0.0</text>
<text text-anchor="start" x="378.38" y="-385.2" font-family="Helvetica,sans-Serif" font-size="14.00">samples = 3</text>
<text text-anchor="start" x="369" y="-370.2" font-family="Helvetica,sans-Serif" font-size="14.00">value = [0, 3, 0]</text>
<text text-anchor="start" x="363.38" y="-355.2" font-family="Helvetica,sans-Serif" font-size="14.00">class = Chinstrap</text>
</g>
<!-- 8&#45;&gt;9 -->
<g id="edge9" class="edge">
<title>8&#45;&gt;9</title>
<path fill="none" stroke="black" d="M473.37,-460.58C465.07,-449.66 456.08,-437.85 447.72,-426.86"/>
<polygon fill="black" stroke="black" points="450.63,-424.91 441.79,-419.07 445.06,-429.14 450.63,-424.91"/>
</g>
<!-- 10 -->
<g id="node11" class="node">
<title>10</title>
<path fill="#e58139" stroke="black" d="M591,-417.5C591,-417.5 506,-417.5 506,-417.5 500,-417.5 494,-411.5 494,-405.5 494,-405.5 494,-361.5 494,-361.5 494,-355.5 500,-349.5 506,-349.5 506,-349.5 591,-349.5 591,-349.5 597,-349.5 603,-355.5 603,-361.5 603,-361.5 603,-405.5 603,-405.5 603,-411.5 597,-417.5 591,-417.5"/>
<text text-anchor="start" x="520.75" y="-400.2" font-family="Helvetica,sans-Serif" font-size="14.00">gini = 0.0</text>
<text text-anchor="start" x="511.38" y="-385.2" font-family="Helvetica,sans-Serif" font-size="14.00">samples = 6</text>
<text text-anchor="start" x="502" y="-370.2" font-family="Helvetica,sans-Serif" font-size="14.00">value = [6, 0, 0]</text>
<text text-anchor="start" x="506.5" y="-355.2" font-family="Helvetica,sans-Serif" font-size="14.00">class = Adelie</text>
</g>
<!-- 8&#45;&gt;10 -->
<g id="edge10" class="edge">
<title>8&#45;&gt;10</title>
<path fill="none" stroke="black" d="M519.89,-460.58C523.79,-450.21 527.99,-439.03 531.95,-428.52"/>
<polygon fill="black" stroke="black" points="535.18,-429.87 535.42,-419.28 528.63,-427.41 535.18,-429.87"/>
</g>
<!-- 12 -->
<g id="node13" class="node">
<title>12</title>
<path fill="#46e789" stroke="black" d="M867.5,-544C867.5,-544 737.5,-544 737.5,-544 731.5,-544 725.5,-538 725.5,-532 725.5,-532 725.5,-473 725.5,-473 725.5,-467 731.5,-461 737.5,-461 737.5,-461 867.5,-461 867.5,-461 873.5,-461 879.5,-467 879.5,-473 879.5,-473 879.5,-532 879.5,-532 879.5,-538 873.5,-544 867.5,-544"/>
<text text-anchor="start" x="733.5" y="-526.7" font-family="Helvetica,sans-Serif" font-size="14.00">bill_depth_mm ≤ 15.45</text>
<text text-anchor="start" x="767.25" y="-511.7" font-family="Helvetica,sans-Serif" font-size="14.00">gini = 0.121</text>
<text text-anchor="start" x="761.62" y="-496.7" font-family="Helvetica,sans-Serif" font-size="14.00">samples = 47</text>
<text text-anchor="start" x="752.25" y="-481.7" font-family="Helvetica,sans-Serif" font-size="14.00">value = [2, 44, 1]</text>
<text text-anchor="start" x="750.38" y="-466.7" font-family="Helvetica,sans-Serif" font-size="14.00">class = Chinstrap</text>
</g>
<!-- 11&#45;&gt;12 -->
<g id="edge12" class="edge">
<title>11&#45;&gt;12</title>
<path fill="none" stroke="black" d="M802.5,-579.58C802.5,-571.79 802.5,-563.53 802.5,-555.45"/>
<polygon fill="black" stroke="black" points="806,-555.71 802.5,-545.71 799,-555.71 806,-555.71"/>
</g>
<!-- 23 -->
<g id="node24" class="node">
<title>23</title>
<path fill="#f2c09c" stroke="black" d="M1044,-544C1044,-544 911,-544 911,-544 905,-544 899,-538 899,-532 899,-532 899,-473 899,-473 899,-467 905,-461 911,-461 911,-461 1044,-461 1044,-461 1050,-461 1056,-467 1056,-473 1056,-473 1056,-532 1056,-532 1056,-538 1050,-544 1044,-544"/>
<text text-anchor="start" x="907" y="-526.7" font-family="Helvetica,sans-Serif" font-size="14.00">bill_length_mm ≤ 48.85</text>
<text text-anchor="start" x="942.25" y="-511.7" font-family="Helvetica,sans-Serif" font-size="14.00">gini = 0.444</text>
<text text-anchor="start" x="940.38" y="-496.7" font-family="Helvetica,sans-Serif" font-size="14.00">samples = 3</text>
<text text-anchor="start" x="931" y="-481.7" font-family="Helvetica,sans-Serif" font-size="14.00">value = [2, 1, 0]</text>
<text text-anchor="start" x="935.5" y="-466.7" font-family="Helvetica,sans-Serif" font-size="14.00">class = Adelie</text>
</g>
<!-- 11&#45;&gt;23 -->
<g id="edge23" class="edge">
<title>11&#45;&gt;23</title>
<path fill="none" stroke="black" d="M863.71,-579.58C877.69,-570.23 892.67,-560.21 907.01,-550.63"/>
<polygon fill="black" stroke="black" points="908.7,-553.71 915.07,-545.24 904.81,-547.89 908.7,-553.71"/>
</g>
<!-- 13 -->
<g id="node14" class="node">
<title>13</title>
<path fill="#8139e5" stroke="black" d="M718,-417.5C718,-417.5 633,-417.5 633,-417.5 627,-417.5 621,-411.5 621,-405.5 621,-405.5 621,-361.5 621,-361.5 621,-355.5 627,-349.5 633,-349.5 633,-349.5 718,-349.5 718,-349.5 724,-349.5 730,-355.5 730,-361.5 730,-361.5 730,-405.5 730,-405.5 730,-411.5 724,-417.5 718,-417.5"/>
<text text-anchor="start" x="647.75" y="-400.2" font-family="Helvetica,sans-Serif" font-size="14.00">gini = 0.0</text>
<text text-anchor="start" x="638.38" y="-385.2" font-family="Helvetica,sans-Serif" font-size="14.00">samples = 1</text>
<text text-anchor="start" x="629" y="-370.2" font-family="Helvetica,sans-Serif" font-size="14.00">value = [0, 0, 1]</text>
<text text-anchor="start" x="629.75" y="-355.2" font-family="Helvetica,sans-Serif" font-size="14.00">class = Gentoo</text>
</g>
<!-- 12&#45;&gt;13 -->
<g id="edge13" class="edge">
<title>12&#45;&gt;13</title>
<path fill="none" stroke="black" d="M758.08,-460.58C745.76,-449.23 732.38,-436.9 720.05,-425.55"/>
<polygon fill="black" stroke="black" points="722.55,-423.09 712.83,-418.89 717.81,-428.24 722.55,-423.09"/>
</g>
<!-- 14 -->
<g id="node15" class="node">
<title>14</title>
<path fill="#42e687" stroke="black" d="M893,-425C893,-425 760,-425 760,-425 754,-425 748,-419 748,-413 748,-413 748,-354 748,-354 748,-348 754,-342 760,-342 760,-342 893,-342 893,-342 899,-342 905,-348 905,-354 905,-354 905,-413 905,-413 905,-419 899,-425 893,-425"/>
<text text-anchor="start" x="756" y="-407.7" font-family="Helvetica,sans-Serif" font-size="14.00">bill_length_mm ≤ 44.65</text>
<text text-anchor="start" x="791.25" y="-392.7" font-family="Helvetica,sans-Serif" font-size="14.00">gini = 0.083</text>
<text text-anchor="start" x="785.62" y="-377.7" font-family="Helvetica,sans-Serif" font-size="14.00">samples = 46</text>
<text text-anchor="start" x="776.25" y="-362.7" font-family="Helvetica,sans-Serif" font-size="14.00">value = [2, 44, 0]</text>
<text text-anchor="start" x="774.38" y="-347.7" font-family="Helvetica,sans-Serif" font-size="14.00">class = Chinstrap</text>
</g>
<!-- 12&#45;&gt;14 -->
<g id="edge14" class="edge">
<title>12&#45;&gt;14</title>
<path fill="none" stroke="black" d="M810.89,-460.58C812.49,-452.79 814.19,-444.53 815.84,-436.45"/>
<polygon fill="black" stroke="black" points="819.27,-437.18 817.85,-426.68 812.41,-435.78 819.27,-437.18"/>
</g>
<!-- 15 -->
<g id="node16" class="node">
<title>15</title>
<path fill="#ffffff" stroke="black" d="M804.75,-306C804.75,-306 682.25,-306 682.25,-306 676.25,-306 670.25,-300 670.25,-294 670.25,-294 670.25,-235 670.25,-235 670.25,-229 676.25,-223 682.25,-223 682.25,-223 804.75,-223 804.75,-223 810.75,-223 816.75,-229 816.75,-235 816.75,-235 816.75,-294 816.75,-294 816.75,-300 810.75,-306 804.75,-306"/>
<text text-anchor="start" x="678.25" y="-288.7" font-family="Helvetica,sans-Serif" font-size="14.00">bill_depth_mm ≤ 18.9</text>
<text text-anchor="start" x="715.75" y="-273.7" font-family="Helvetica,sans-Serif" font-size="14.00">gini = 0.5</text>
<text text-anchor="start" x="706.38" y="-258.7" font-family="Helvetica,sans-Serif" font-size="14.00">samples = 2</text>
<text text-anchor="start" x="697" y="-243.7" font-family="Helvetica,sans-Serif" font-size="14.00">value = [1, 1, 0]</text>
<text text-anchor="start" x="701.5" y="-228.7" font-family="Helvetica,sans-Serif" font-size="14.00">class = Adelie</text>
</g>
<!-- 14&#45;&gt;15 -->
<g id="edge15" class="edge">
<title>14&#45;&gt;15</title>
<path fill="none" stroke="black" d="M797.47,-341.58C791.5,-333.16 785.14,-324.2 778.97,-315.5"/>
<polygon fill="black" stroke="black" points="781.89,-313.57 773.25,-307.43 776.18,-317.62 781.89,-313.57"/>
</g>
<!-- 18 -->
<g id="node19" class="node">
<title>18</title>
<path fill="#3ee684" stroke="black" d="M972.25,-306C972.25,-306 846.75,-306 846.75,-306 840.75,-306 834.75,-300 834.75,-294 834.75,-294 834.75,-235 834.75,-235 834.75,-229 840.75,-223 846.75,-223 846.75,-223 972.25,-223 972.25,-223 978.25,-223 984.25,-229 984.25,-235 984.25,-235 984.25,-294 984.25,-294 984.25,-300 978.25,-306 972.25,-306"/>
<text text-anchor="start" x="842.75" y="-288.7" font-family="Helvetica,sans-Serif" font-size="14.00">bill_length_mm ≤ 45.9</text>
<text text-anchor="start" x="874.25" y="-273.7" font-family="Helvetica,sans-Serif" font-size="14.00">gini = 0.044</text>
<text text-anchor="start" x="868.62" y="-258.7" font-family="Helvetica,sans-Serif" font-size="14.00">samples = 44</text>
<text text-anchor="start" x="859.25" y="-243.7" font-family="Helvetica,sans-Serif" font-size="14.00">value = [1, 43, 0]</text>
<text text-anchor="start" x="857.38" y="-228.7" font-family="Helvetica,sans-Serif" font-size="14.00">class = Chinstrap</text>
</g>
<!-- 14&#45;&gt;18 -->
<g id="edge18" class="edge">
<title>14&#45;&gt;18</title>
<path fill="none" stroke="black" d="M855.53,-341.58C861.5,-333.16 867.86,-324.2 874.03,-315.5"/>
<polygon fill="black" stroke="black" points="876.82,-317.62 879.75,-307.43 871.11,-313.57 876.82,-317.62"/>
</g>
<!-- 16 -->
<g id="node17" class="node">
<title>16</title>
<path fill="#39e581" stroke="black" d="M662.62,-179.5C662.62,-179.5 566.38,-179.5 566.38,-179.5 560.38,-179.5 554.38,-173.5 554.38,-167.5 554.38,-167.5 554.38,-123.5 554.38,-123.5 554.38,-117.5 560.38,-111.5 566.38,-111.5 566.38,-111.5 662.62,-111.5 662.62,-111.5 668.62,-111.5 674.62,-117.5 674.62,-123.5 674.62,-123.5 674.62,-167.5 674.62,-167.5 674.62,-173.5 668.62,-179.5 662.62,-179.5"/>
<text text-anchor="start" x="586.75" y="-162.2" font-family="Helvetica,sans-Serif" font-size="14.00">gini = 0.0</text>
<text text-anchor="start" x="577.38" y="-147.2" font-family="Helvetica,sans-Serif" font-size="14.00">samples = 1</text>
<text text-anchor="start" x="568" y="-132.2" font-family="Helvetica,sans-Serif" font-size="14.00">value = [0, 1, 0]</text>
<text text-anchor="start" x="562.38" y="-117.2" font-family="Helvetica,sans-Serif" font-size="14.00">class = Chinstrap</text>
</g>
<!-- 15&#45;&gt;16 -->
<g id="edge16" class="edge">
<title>15&#45;&gt;16</title>
<path fill="none" stroke="black" d="M698.38,-222.58C685.87,-211.23 672.28,-198.9 659.76,-187.55"/>
<polygon fill="black" stroke="black" points="662.16,-185 652.4,-180.88 657.46,-190.19 662.16,-185"/>
</g>
<!-- 17 -->
<g id="node18" class="node">
<title>17</title>
<path fill="#e58139" stroke="black" d="M790,-179.5C790,-179.5 705,-179.5 705,-179.5 699,-179.5 693,-173.5 693,-167.5 693,-167.5 693,-123.5 693,-123.5 693,-117.5 699,-111.5 705,-111.5 705,-111.5 790,-111.5 790,-111.5 796,-111.5 802,-117.5 802,-123.5 802,-123.5 802,-167.5 802,-167.5 802,-173.5 796,-179.5 790,-179.5"/>
<text text-anchor="start" x="719.75" y="-162.2" font-family="Helvetica,sans-Serif" font-size="14.00">gini = 0.0</text>
<text text-anchor="start" x="710.38" y="-147.2" font-family="Helvetica,sans-Serif" font-size="14.00">samples = 1</text>
<text text-anchor="start" x="701" y="-132.2" font-family="Helvetica,sans-Serif" font-size="14.00">value = [1, 0, 0]</text>
<text text-anchor="start" x="705.5" y="-117.2" font-family="Helvetica,sans-Serif" font-size="14.00">class = Adelie</text>
</g>
<!-- 15&#45;&gt;17 -->
<g id="edge17" class="edge">
<title>15&#45;&gt;17</title>
<path fill="none" stroke="black" d="M744.9,-222.58C745.25,-212.43 745.62,-201.5 745.97,-191.18"/>
<polygon fill="black" stroke="black" points="749.46,-191.49 746.31,-181.37 742.47,-191.25 749.46,-191.49"/>
</g>
<!-- 19 -->
<g id="node20" class="node">
<title>19</title>
<path fill="#55e993" stroke="black" d="M972,-187C972,-187 839,-187 839,-187 833,-187 827,-181 827,-175 827,-175 827,-116 827,-116 827,-110 833,-104 839,-104 839,-104 972,-104 972,-104 978,-104 984,-110 984,-116 984,-116 984,-175 984,-175 984,-181 978,-187 972,-187"/>
<text text-anchor="start" x="835" y="-169.7" font-family="Helvetica,sans-Serif" font-size="14.00">bill_length_mm ≤ 45.75</text>
<text text-anchor="start" x="870.25" y="-154.7" font-family="Helvetica,sans-Serif" font-size="14.00">gini = 0.219</text>
<text text-anchor="start" x="868.38" y="-139.7" font-family="Helvetica,sans-Serif" font-size="14.00">samples = 8</text>
<text text-anchor="start" x="859" y="-124.7" font-family="Helvetica,sans-Serif" font-size="14.00">value = [1, 7, 0]</text>
<text text-anchor="start" x="853.38" y="-109.7" font-family="Helvetica,sans-Serif" font-size="14.00">class = Chinstrap</text>
</g>
<!-- 18&#45;&gt;19 -->
<g id="edge19" class="edge">
<title>18&#45;&gt;19</title>
<path fill="none" stroke="black" d="M908.1,-222.58C907.83,-214.79 907.55,-206.53 907.28,-198.45"/>
<polygon fill="black" stroke="black" points="910.78,-198.59 906.94,-188.71 903.79,-198.83 910.78,-198.59"/>
</g>
<!-- 22 -->
<g id="node23" class="node">
<title>22</title>
<path fill="#39e581" stroke="black" d="M1110.62,-179.5C1110.62,-179.5 1014.38,-179.5 1014.38,-179.5 1008.38,-179.5 1002.38,-173.5 1002.38,-167.5 1002.38,-167.5 1002.38,-123.5 1002.38,-123.5 1002.38,-117.5 1008.38,-111.5 1014.38,-111.5 1014.38,-111.5 1110.62,-111.5 1110.62,-111.5 1116.62,-111.5 1122.62,-117.5 1122.62,-123.5 1122.62,-123.5 1122.62,-167.5 1122.62,-167.5 1122.62,-173.5 1116.62,-179.5 1110.62,-179.5"/>
<text text-anchor="start" x="1034.75" y="-162.2" font-family="Helvetica,sans-Serif" font-size="14.00">gini = 0.0</text>
<text text-anchor="start" x="1021.62" y="-147.2" font-family="Helvetica,sans-Serif" font-size="14.00">samples = 36</text>
<text text-anchor="start" x="1012.25" y="-132.2" font-family="Helvetica,sans-Serif" font-size="14.00">value = [0, 36, 0]</text>
<text text-anchor="start" x="1010.38" y="-117.2" font-family="Helvetica,sans-Serif" font-size="14.00">class = Chinstrap</text>
</g>
<!-- 18&#45;&gt;22 -->
<g id="edge22" class="edge">
<title>18&#45;&gt;22</title>
<path fill="none" stroke="black" d="M963.01,-222.58C978.28,-210.9 994.9,-198.19 1010.11,-186.57"/>
<polygon fill="black" stroke="black" points="1011.85,-189.64 1017.67,-180.78 1007.6,-184.07 1011.85,-189.64"/>
</g>
<!-- 20 -->
<g id="node21" class="node">
<title>20</title>
<path fill="#39e581" stroke="black" d="M886.62,-68C886.62,-68 790.38,-68 790.38,-68 784.38,-68 778.38,-62 778.38,-56 778.38,-56 778.38,-12 778.38,-12 778.38,-6 784.38,0 790.38,0 790.38,0 886.62,0 886.62,0 892.62,0 898.62,-6 898.62,-12 898.62,-12 898.62,-56 898.62,-56 898.62,-62 892.62,-68 886.62,-68"/>
<text text-anchor="start" x="810.75" y="-50.7" font-family="Helvetica,sans-Serif" font-size="14.00">gini = 0.0</text>
<text text-anchor="start" x="801.38" y="-35.7" font-family="Helvetica,sans-Serif" font-size="14.00">samples = 7</text>
<text text-anchor="start" x="792" y="-20.7" font-family="Helvetica,sans-Serif" font-size="14.00">value = [0, 7, 0]</text>
<text text-anchor="start" x="786.38" y="-5.7" font-family="Helvetica,sans-Serif" font-size="14.00">class = Chinstrap</text>
</g>
<!-- 19&#45;&gt;20 -->
<g id="edge20" class="edge">
<title>19&#45;&gt;20</title>
<path fill="none" stroke="black" d="M880.55,-103.73C875.42,-95.34 870,-86.47 864.81,-78.01"/>
<polygon fill="black" stroke="black" points="867.87,-76.29 859.67,-69.59 861.9,-79.95 867.87,-76.29"/>
</g>
<!-- 21 -->
<g id="node22" class="node">
<title>21</title>
<path fill="#e58139" stroke="black" d="M1014,-68C1014,-68 929,-68 929,-68 923,-68 917,-62 917,-56 917,-56 917,-12 917,-12 917,-6 923,0 929,0 929,0 1014,0 1014,0 1020,0 1026,-6 1026,-12 1026,-12 1026,-56 1026,-56 1026,-62 1020,-68 1014,-68"/>
<text text-anchor="start" x="943.75" y="-50.7" font-family="Helvetica,sans-Serif" font-size="14.00">gini = 0.0</text>
<text text-anchor="start" x="934.38" y="-35.7" font-family="Helvetica,sans-Serif" font-size="14.00">samples = 1</text>
<text text-anchor="start" x="925" y="-20.7" font-family="Helvetica,sans-Serif" font-size="14.00">value = [1, 0, 0]</text>
<text text-anchor="start" x="929.5" y="-5.7" font-family="Helvetica,sans-Serif" font-size="14.00">class = Adelie</text>
</g>
<!-- 19&#45;&gt;21 -->
<g id="edge21" class="edge">
<title>19&#45;&gt;21</title>
<path fill="none" stroke="black" d="M930.08,-103.73C935.13,-95.34 940.47,-86.47 945.58,-78.01"/>
<polygon fill="black" stroke="black" points="948.48,-79.97 950.65,-69.6 942.49,-76.35 948.48,-79.97"/>
</g>
<!-- 24 -->
<g id="node25" class="node">
<title>24</title>
<path fill="#e58139" stroke="black" d="M1020,-417.5C1020,-417.5 935,-417.5 935,-417.5 929,-417.5 923,-411.5 923,-405.5 923,-405.5 923,-361.5 923,-361.5 923,-355.5 929,-349.5 935,-349.5 935,-349.5 1020,-349.5 1020,-349.5 1026,-349.5 1032,-355.5 1032,-361.5 1032,-361.5 1032,-405.5 1032,-405.5 1032,-411.5 1026,-417.5 1020,-417.5"/>
<text text-anchor="start" x="949.75" y="-400.2" font-family="Helvetica,sans-Serif" font-size="14.00">gini = 0.0</text>
<text text-anchor="start" x="940.38" y="-385.2" font-family="Helvetica,sans-Serif" font-size="14.00">samples = 2</text>
<text text-anchor="start" x="931" y="-370.2" font-family="Helvetica,sans-Serif" font-size="14.00">value = [2, 0, 0]</text>
<text text-anchor="start" x="935.5" y="-355.2" font-family="Helvetica,sans-Serif" font-size="14.00">class = Adelie</text>
</g>
<!-- 23&#45;&gt;24 -->
<g id="edge24" class="edge">
<title>23&#45;&gt;24</title>
<path fill="none" stroke="black" d="M977.5,-460.58C977.5,-450.43 977.5,-439.5 977.5,-429.18"/>
<polygon fill="black" stroke="black" points="981,-429.37 977.5,-419.37 974,-429.37 981,-429.37"/>
</g>
<!-- 25 -->
<g id="node26" class="node">
<title>25</title>
<path fill="#39e581" stroke="black" d="M1158.62,-417.5C1158.62,-417.5 1062.38,-417.5 1062.38,-417.5 1056.38,-417.5 1050.38,-411.5 1050.38,-405.5 1050.38,-405.5 1050.38,-361.5 1050.38,-361.5 1050.38,-355.5 1056.38,-349.5 1062.38,-349.5 1062.38,-349.5 1158.62,-349.5 1158.62,-349.5 1164.62,-349.5 1170.62,-355.5 1170.62,-361.5 1170.62,-361.5 1170.62,-405.5 1170.62,-405.5 1170.62,-411.5 1164.62,-417.5 1158.62,-417.5"/>
<text text-anchor="start" x="1082.75" y="-400.2" font-family="Helvetica,sans-Serif" font-size="14.00">gini = 0.0</text>
<text text-anchor="start" x="1073.38" y="-385.2" font-family="Helvetica,sans-Serif" font-size="14.00">samples = 1</text>
<text text-anchor="start" x="1064" y="-370.2" font-family="Helvetica,sans-Serif" font-size="14.00">value = [0, 1, 0]</text>
<text text-anchor="start" x="1058.38" y="-355.2" font-family="Helvetica,sans-Serif" font-size="14.00">class = Chinstrap</text>
</g>
<!-- 23&#45;&gt;25 -->
<g id="edge25" class="edge">
<title>23&#45;&gt;25</title>
<path fill="none" stroke="black" d="M1024.02,-460.58C1037.04,-449.12 1051.2,-436.67 1064.21,-425.22"/>
<polygon fill="black" stroke="black" points="1066.24,-428.09 1071.44,-418.86 1061.62,-422.84 1066.24,-428.09"/>
</g>
<!-- 27 -->
<g id="node28" class="node">
<title>27</title>
<path fill="#8139e5" stroke="black" d="M1023.75,-655.5C1023.75,-655.5 931.25,-655.5 931.25,-655.5 925.25,-655.5 919.25,-649.5 919.25,-643.5 919.25,-643.5 919.25,-599.5 919.25,-599.5 919.25,-593.5 925.25,-587.5 931.25,-587.5 931.25,-587.5 1023.75,-587.5 1023.75,-587.5 1029.75,-587.5 1035.75,-593.5 1035.75,-599.5 1035.75,-599.5 1035.75,-643.5 1035.75,-643.5 1035.75,-649.5 1029.75,-655.5 1023.75,-655.5"/>
<text text-anchor="start" x="949.75" y="-638.2" font-family="Helvetica,sans-Serif" font-size="14.00">gini = 0.0</text>
<text text-anchor="start" x="936.62" y="-623.2" font-family="Helvetica,sans-Serif" font-size="14.00">samples = 97</text>
<text text-anchor="start" x="927.25" y="-608.2" font-family="Helvetica,sans-Serif" font-size="14.00">value = [0, 0, 97]</text>
<text text-anchor="start" x="931.75" y="-593.2" font-family="Helvetica,sans-Serif" font-size="14.00">class = Gentoo</text>
</g>
<!-- 26&#45;&gt;27 -->
<g id="edge27" class="edge">
<title>26&#45;&gt;27</title>
<path fill="none" stroke="black" d="M977.5,-698.58C977.5,-688.43 977.5,-677.5 977.5,-667.18"/>
<polygon fill="black" stroke="black" points="981,-667.37 977.5,-657.37 974,-667.37 981,-667.37"/>
</g>
<!-- 28 -->
<g id="node29" class="node">
<title>28</title>
<path fill="#61ea9a" stroke="black" d="M1191.25,-663C1191.25,-663 1065.75,-663 1065.75,-663 1059.75,-663 1053.75,-657 1053.75,-651 1053.75,-651 1053.75,-592 1053.75,-592 1053.75,-586 1059.75,-580 1065.75,-580 1065.75,-580 1191.25,-580 1191.25,-580 1197.25,-580 1203.25,-586 1203.25,-592 1203.25,-592 1203.25,-651 1203.25,-651 1203.25,-657 1197.25,-663 1191.25,-663"/>
<text text-anchor="start" x="1061.75" y="-645.7" font-family="Helvetica,sans-Serif" font-size="14.00">bill_length_mm ≤ 44.9</text>
<text text-anchor="start" x="1093.25" y="-630.7" font-family="Helvetica,sans-Serif" font-size="14.00">gini = 0.278</text>
<text text-anchor="start" x="1091.38" y="-615.7" font-family="Helvetica,sans-Serif" font-size="14.00">samples = 6</text>
<text text-anchor="start" x="1082" y="-600.7" font-family="Helvetica,sans-Serif" font-size="14.00">value = [1, 5, 0]</text>
<text text-anchor="start" x="1076.38" y="-585.7" font-family="Helvetica,sans-Serif" font-size="14.00">class = Chinstrap</text>
</g>
<!-- 26&#45;&gt;28 -->
<g id="edge28" class="edge">
<title>26&#45;&gt;28</title>
<path fill="none" stroke="black" d="M1030.31,-698.58C1042.04,-689.49 1054.57,-679.79 1066.62,-670.45"/>
<polygon fill="black" stroke="black" points="1068.76,-673.22 1074.52,-664.32 1064.47,-667.68 1068.76,-673.22"/>
</g>
<!-- 29 -->
<g id="node30" class="node">
<title>29</title>
<path fill="#e58139" stroke="black" d="M1171,-536.5C1171,-536.5 1086,-536.5 1086,-536.5 1080,-536.5 1074,-530.5 1074,-524.5 1074,-524.5 1074,-480.5 1074,-480.5 1074,-474.5 1080,-468.5 1086,-468.5 1086,-468.5 1171,-468.5 1171,-468.5 1177,-468.5 1183,-474.5 1183,-480.5 1183,-480.5 1183,-524.5 1183,-524.5 1183,-530.5 1177,-536.5 1171,-536.5"/>
<text text-anchor="start" x="1100.75" y="-519.2" font-family="Helvetica,sans-Serif" font-size="14.00">gini = 0.0</text>
<text text-anchor="start" x="1091.38" y="-504.2" font-family="Helvetica,sans-Serif" font-size="14.00">samples = 1</text>
<text text-anchor="start" x="1082" y="-489.2" font-family="Helvetica,sans-Serif" font-size="14.00">value = [1, 0, 0]</text>
<text text-anchor="start" x="1086.5" y="-474.2" font-family="Helvetica,sans-Serif" font-size="14.00">class = Adelie</text>
</g>
<!-- 28&#45;&gt;29 -->
<g id="edge29" class="edge">
<title>28&#45;&gt;29</title>
<path fill="none" stroke="black" d="M1128.5,-579.58C1128.5,-569.43 1128.5,-558.5 1128.5,-548.18"/>
<polygon fill="black" stroke="black" points="1132,-548.37 1128.5,-538.37 1125,-548.37 1132,-548.37"/>
</g>
<!-- 30 -->
<g id="node31" class="node">
<title>30</title>
<path fill="#39e581" stroke="black" d="M1309.62,-536.5C1309.62,-536.5 1213.38,-536.5 1213.38,-536.5 1207.38,-536.5 1201.38,-530.5 1201.38,-524.5 1201.38,-524.5 1201.38,-480.5 1201.38,-480.5 1201.38,-474.5 1207.38,-468.5 1213.38,-468.5 1213.38,-468.5 1309.62,-468.5 1309.62,-468.5 1315.62,-468.5 1321.62,-474.5 1321.62,-480.5 1321.62,-480.5 1321.62,-524.5 1321.62,-524.5 1321.62,-530.5 1315.62,-536.5 1309.62,-536.5"/>
<text text-anchor="start" x="1233.75" y="-519.2" font-family="Helvetica,sans-Serif" font-size="14.00">gini = 0.0</text>
<text text-anchor="start" x="1224.38" y="-504.2" font-family="Helvetica,sans-Serif" font-size="14.00">samples = 5</text>
<text text-anchor="start" x="1215" y="-489.2" font-family="Helvetica,sans-Serif" font-size="14.00">value = [0, 5, 0]</text>
<text text-anchor="start" x="1209.38" y="-474.2" font-family="Helvetica,sans-Serif" font-size="14.00">class = Chinstrap</text>
</g>
<!-- 28&#45;&gt;30 -->
<g id="edge30" class="edge">
<title>28&#45;&gt;30</title>
<path fill="none" stroke="black" d="M1175.02,-579.58C1188.04,-568.12 1202.2,-555.67 1215.21,-544.22"/>
<polygon fill="black" stroke="black" points="1217.24,-547.09 1222.44,-537.86 1212.62,-541.84 1217.24,-547.09"/>
</g>
</g>
</svg>
